<svg version="1.2" xmlns="http://www.w3.org/2000/svg" viewBox="0 0 3710 3710" width="3710" height="3710">
	<title>20944573-ai</title>
	<defs>
		<linearGradient id="g1" x2="1" gradientUnits="userSpaceOnUse" gradientTransform="matrix(-3499.822,-3987.145,4016.466,-3525.56,2297.504,5347.892)">
			<stop offset="0" stop-color="#dae3fe"/>
			<stop offset="1" stop-color="#e9effd"/>
		</linearGradient>
		<linearGradient id="g2" x2="1" gradientUnits="userSpaceOnUse" gradientTransform="matrix(497.231,87.491,-142.686,810.914,2486.963,461.157)">
			<stop offset="0" stop-color="#dae3fe"/>
			<stop offset="1" stop-color="#e9effd"/>
		</linearGradient>
		<linearGradient id="g3" x2="1" gradientUnits="userSpaceOnUse" gradientTransform="matrix(-138.669,-4104.657,3193.29,-107.88,-12.308,3150.042)">
			<stop offset="0" stop-color="#09005d"/>
			<stop offset="1" stop-color="#1a0f91"/>
		</linearGradient>
		<linearGradient id="g4" x2="1" gradientUnits="userSpaceOnUse" gradientTransform="matrix(481.936,-1314.371,1314.371,481.936,1038.87,1235.099)">
			<stop offset="0" stop-color="#ff928e"/>
			<stop offset="1" stop-color="#fe7062"/>
		</linearGradient>
		<linearGradient id="g5" x2="1" gradientUnits="userSpaceOnUse" gradientTransform="matrix(481.003,-1311.827,2274.877,834.121,1213.445,1212.015)">
			<stop offset="0" stop-color="#ff928e"/>
			<stop offset="1" stop-color="#fe7062"/>
		</linearGradient>
		<linearGradient id="g6" x2="1" gradientUnits="userSpaceOnUse" gradientTransform="matrix(-636.612,1086.547,-607.014,-355.652,1447.902,1693.585)">
			<stop offset="0" stop-color="#e1473d"/>
			<stop offset="1" stop-color="#e9605a"/>
		</linearGradient>
		<linearGradient id="g7" x2="1" gradientUnits="userSpaceOnUse" gradientTransform="matrix(-636.613,1086.549,-607.014,-355.652,1564.449,1721.396)">
			<stop offset="0" stop-color="#e1473d"/>
			<stop offset="1" stop-color="#e9605a"/>
		</linearGradient>
		<linearGradient id="g8" x2="1" gradientUnits="userSpaceOnUse" gradientTransform="matrix(-855.489,1192.795,-671.729,-481.773,1662.093,1944.115)">
			<stop offset="0" stop-color="#e1473d"/>
			<stop offset="1" stop-color="#e9605a"/>
		</linearGradient>
		<linearGradient id="g9" x2="1" gradientUnits="userSpaceOnUse" gradientTransform="matrix(-636.613,1086.548,-607.014,-355.652,1782.882,874.968)">
			<stop offset="0" stop-color="#e1473d"/>
			<stop offset="1" stop-color="#e9605a"/>
		</linearGradient>
		<linearGradient id="g10" x2="1" gradientUnits="userSpaceOnUse" gradientTransform="matrix(-882.127,1160.417,-1199.307,-911.69,1987.26,250.351)">
			<stop offset="0" stop-color="#09005d"/>
			<stop offset="1" stop-color="#1a0f91"/>
		</linearGradient>
		<linearGradient id="g11" x2="1" gradientUnits="userSpaceOnUse" gradientTransform="matrix(-750.568,987.355,-1253.673,-953.018,1910.251,278.745)">
			<stop offset="0" stop-color="#09005d"/>
			<stop offset="1" stop-color="#1a0f91"/>
		</linearGradient>
		<linearGradient id="g12" x2="1" gradientUnits="userSpaceOnUse" gradientTransform="matrix(2297.095,-1577.605,1594.693,2321.976,901.248,1268.019)">
			<stop offset="0" stop-color="#4f52ff"/>
			<stop offset="1" stop-color="#4042e2"/>
		</linearGradient>
		<linearGradient id="g13" x2="1" gradientUnits="userSpaceOnUse" gradientTransform="matrix(63.784,-469.524,878.036,119.28,623.201,3662.458)">
			<stop offset="0" stop-color="#4f52ff"/>
			<stop offset="1" stop-color="#4042e2"/>
		</linearGradient>
		<linearGradient id="g14" x2="1" gradientUnits="userSpaceOnUse" gradientTransform="matrix(-1.756,284.524,-873.929,-5.395,656.716,2321.101)">
			<stop offset="0" stop-color="#4f52ff"/>
			<stop offset="1" stop-color="#4042e2"/>
		</linearGradient>
		<linearGradient id="g15" x2="1" gradientUnits="userSpaceOnUse" gradientTransform="matrix(-1.71,277.008,-118.72,-0.733,726.29,2333.781)">
			<stop offset="0" stop-color="#4f52ff"/>
			<stop offset="1" stop-color="#4042e2"/>
		</linearGradient>
		<linearGradient id="g16" x2="1" gradientUnits="userSpaceOnUse" gradientTransform="matrix(-1.756,284.524,-873.931,-5.395,916.528,2322.751)">
			<stop offset="0" stop-color="#4f52ff"/>
			<stop offset="1" stop-color="#4042e2"/>
		</linearGradient>
		<linearGradient id="g17" x2="1" gradientUnits="userSpaceOnUse" gradientTransform="matrix(-1.71,276.979,-109.278,-0.675,999.775,2335.518)">
			<stop offset="0" stop-color="#4f52ff"/>
			<stop offset="1" stop-color="#4042e2"/>
		</linearGradient>
		<linearGradient id="g18" x2="1" gradientUnits="userSpaceOnUse" gradientTransform="matrix(-27.275,200.013,-514.91,-70.215,814.609,2547.895)">
			<stop offset="0" stop-color="#4f52ff"/>
			<stop offset="1" stop-color="#4042e2"/>
		</linearGradient>
		<linearGradient id="g19" x2="1" gradientUnits="userSpaceOnUse" gradientTransform="matrix(-109.871,1025.459,-2373.57,-254.311,877.222,2684.881)">
			<stop offset="0" stop-color="#4f52ff"/>
			<stop offset="1" stop-color="#4042e2"/>
		</linearGradient>
		<linearGradient id="g20" x2="1" gradientUnits="userSpaceOnUse" gradientTransform="matrix(12.121,339.389,-384.495,13.732,817.177,2354.854)">
			<stop offset="0" stop-color="#09005d"/>
			<stop offset="1" stop-color="#1a0f91"/>
		</linearGradient>
		<linearGradient id="g21" x2="1" gradientUnits="userSpaceOnUse" gradientTransform="matrix(108.843,0,0,93.55,732.374,2997.83)">
			<stop offset="0" stop-color="#4f52ff"/>
			<stop offset="1" stop-color="#4042e2"/>
		</linearGradient>
		<linearGradient id="g22" x2="1" gradientUnits="userSpaceOnUse" gradientTransform="matrix(1476.575,-1786.783,1213.634,1002.932,2161.583,1923.418)">
			<stop offset="0" stop-color="#ff928e"/>
			<stop offset="1" stop-color="#fe7062"/>
		</linearGradient>
		<linearGradient id="g23" x2="1" gradientUnits="userSpaceOnUse" gradientTransform="matrix(87.161,249.031,-107.916,37.771,1984.058,1616.708)">
			<stop offset="0" stop-color="#febbba"/>
			<stop offset="1" stop-color="#ff928e"/>
		</linearGradient>
		<linearGradient id="g24" x2="1" gradientUnits="userSpaceOnUse" gradientTransform="matrix(-74.996,-151.286,77.803,-38.569,1879.39,1856.954)">
			<stop offset="0" stop-color="#febbba"/>
			<stop offset="1" stop-color="#ff928e"/>
		</linearGradient>
		<linearGradient id="g25" x2="1" gradientUnits="userSpaceOnUse" gradientTransform="matrix(830.386,903.228,-1381.614,1270.192,2054.608,3066.151)">
			<stop offset="0" stop-color="#09005d"/>
			<stop offset="1" stop-color="#1a0f91"/>
		</linearGradient>
		<linearGradient id="g26" x2="1" gradientUnits="userSpaceOnUse" gradientTransform="matrix(-47.386,0,0,-48.052,2329.9,3130.828)">
			<stop offset="0" stop-color="#febbba"/>
			<stop offset="1" stop-color="#ff928e"/>
		</linearGradient>
		<linearGradient id="g27" x2="1" gradientUnits="userSpaceOnUse" gradientTransform="matrix(-2784.454,3131.194,-2432.911,-2163.497,5460.48,1522.575)">
			<stop offset="0" stop-color="#09005d"/>
			<stop offset="1" stop-color="#1a0f91"/>
		</linearGradient>
		<linearGradient id="g28" x2="1" gradientUnits="userSpaceOnUse" gradientTransform="matrix(704.765,766.587,-840.319,772.55,2172.394,2962.762)">
			<stop offset="0" stop-color="#09005d"/>
			<stop offset="1" stop-color="#1a0f91"/>
		</linearGradient>
		<linearGradient id="g29" x2="1" gradientUnits="userSpaceOnUse" gradientTransform="matrix(-40.913,0,0,-62.881,2500.679,3120.983)">
			<stop offset="0" stop-color="#febbba"/>
			<stop offset="1" stop-color="#ff928e"/>
		</linearGradient>
		<linearGradient id="g30" x2="1" gradientUnits="userSpaceOnUse" gradientTransform="matrix(-3301.098,3712.174,-4000.324,-3557.339,5591.405,956.059)">
			<stop offset="0" stop-color="#09005d"/>
			<stop offset="1" stop-color="#1a0f91"/>
		</linearGradient>
		<linearGradient id="g31" x2="1" gradientUnits="userSpaceOnUse" gradientTransform="matrix(-592.725,1805.12,-2036.604,-668.735,3267.636,499.771)">
			<stop offset="0" stop-color="#ff928e"/>
			<stop offset="1" stop-color="#fe7062"/>
		</linearGradient>
		<linearGradient id="g32" x2="1" gradientUnits="userSpaceOnUse" gradientTransform="matrix(89.373,255.352,-140.675,49.236,2105.405,1560.864)">
			<stop offset="0" stop-color="#febbba"/>
			<stop offset="1" stop-color="#ff928e"/>
		</linearGradient>
		<linearGradient id="g33" x2="1" gradientUnits="userSpaceOnUse" gradientTransform="matrix(-615.926,1875.778,-1946.987,-639.308,3265.539,447.705)">
			<stop offset="0" stop-color="#ff928e"/>
			<stop offset="1" stop-color="#fe7062"/>
		</linearGradient>
		<linearGradient id="g34" x2="1" gradientUnits="userSpaceOnUse" gradientTransform="matrix(-121.125,0,0,-130.651,2429.398,1868.681)">
			<stop offset="0" stop-color="#febbba"/>
			<stop offset="1" stop-color="#ff928e"/>
		</linearGradient>
		<linearGradient id="g35" x2="1" gradientUnits="userSpaceOnUse" gradientTransform="matrix(155.425,-94.798,78.753,129.118,2332.832,1970.285)">
			<stop offset="0" stop-color="#febbba"/>
			<stop offset="1" stop-color="#ff928e"/>
		</linearGradient>
		<linearGradient id="g36" x2="1" gradientUnits="userSpaceOnUse" gradientTransform="matrix(-222.244,175.535,-252.874,-320.163,2468.611,1619.65)">
			<stop offset="0" stop-color="#09005d"/>
			<stop offset="1" stop-color="#1a0f91"/>
		</linearGradient>
		<linearGradient id="g37" x2="1" gradientUnits="userSpaceOnUse" gradientTransform="matrix(129.186,-78.794,38.879,63.744,2332.494,1926.16)">
			<stop offset="0" stop-color="#febbba"/>
			<stop offset="1" stop-color="#ff928e"/>
		</linearGradient>
		<linearGradient id="g38" x2="1" gradientUnits="userSpaceOnUse" gradientTransform="matrix(100.758,-723.628,237.56,33.078,3077.962,2913.954)">
			<stop offset="0" stop-color="#febbba"/>
			<stop offset="1" stop-color="#ff928e"/>
		</linearGradient>
		<linearGradient id="g39" x2="1" gradientUnits="userSpaceOnUse" gradientTransform="matrix(82.36,-591.497,306.78,42.716,2654.025,2780.716)">
			<stop offset="0" stop-color="#febbba"/>
			<stop offset="1" stop-color="#ff928e"/>
		</linearGradient>
	</defs>
	<style>
		.s0 { fill: #ffffff } 
		.s1 { fill: url(#g1) } 
		.s2 { fill: #bdd0fb } 
		.s3 { fill: url(#g2) } 
		.s4 { fill: #91b3fa } 
		.s5 { opacity: .5;fill: #ffffff } 
		.s6 { fill: url(#g3) } 
		.s7 { opacity: .8;fill: #ffffff } 
		.s8 { fill: url(#g4) } 
		.s9 { fill: url(#g5) } 
		.s10 { opacity: .6;fill: #ffffff } 
		.s11 { fill: url(#g6) } 
		.s12 { fill: url(#g7) } 
		.s13 { fill: url(#g8) } 
		.s14 { fill: url(#g9) } 
		.s15 { fill: url(#g10) } 
		.s16 { fill: url(#g11) } 
		.s17 { fill: #7d97f4 } 
		.s18 { fill: url(#g12) } 
		.s19 { fill: url(#g13) } 
		.s20 { fill: url(#g14) } 
		.s21 { fill: url(#g15) } 
		.s22 { fill: url(#g16) } 
		.s23 { fill: url(#g17) } 
		.s24 { fill: url(#g18) } 
		.s25 { fill: url(#g19) } 
		.s26 { fill: url(#g20) } 
		.s27 { fill: url(#g21) } 
		.s28 { fill: url(#g22) } 
		.s29 { fill: url(#g23) } 
		.s30 { fill: url(#g24) } 
		.s31 { fill: url(#g25) } 
		.s32 { fill: url(#g26) } 
		.s33 { fill: url(#g27) } 
		.s34 { fill: url(#g28) } 
		.s35 { fill: url(#g29) } 
		.s36 { fill: url(#g30) } 
		.s37 { fill: url(#g31) } 
		.s38 { fill: url(#g32) } 
		.s39 { fill: url(#g33) } 
		.s40 { fill: url(#g34) } 
		.s41 { fill: url(#g35) } 
		.s42 { fill: url(#g36) } 
		.s43 { fill: url(#g37) } 
		.s44 { fill: url(#g38) } 
		.s45 { fill: url(#g39) } 
	</style>
	<g id="_Artboards_">
	</g>
	<g id="Background">
		<g id="&lt;Group&gt;">
			<g id="&lt;Group&gt;">
				<path id="&lt;Path&gt;" class="s0" d="m3710 3710h-3710v-3710h3710z"/>
			</g>
		</g>
	</g>
	<g id="Illustration">
		<g id="&lt;Group&gt;">
			<path id="&lt;Path&gt;" class="s1" d="m2887.1 2848.7c-506.2 534.2-1283.8 376.2-1398.7 350.8-144.8-32-489.3-108.1-746.4-408.7-393.6-460.1-353.9-1179.2-49.9-1664.1 88.5-141 386.1-560.3 945.1-651.4 32.6-5.4 616.3-90.9 1086 303.1 63.3 53.1 165.5 149.4 255.1 289.5 277.8 434.6 409.4 1252.6-91.2 1780.8z"/>
			<g id="&lt;Group&gt;">
				<g id="&lt;Group&gt;">
					<path id="&lt;Path&gt;" class="s2" d="m2318.5 1431.1c-31.3 113.6-84 261.7-138.2 387.7l-19.5-3.4c68.1-151.7 143.3-362.6 176.5-615 33.5-254.7 25.6-572.4 166.7-698.6 117.5-105.1 528.3-51.6 662.8-30.8 16.8 2.7 23 23.6 10.3 34.9-62.8 55.6-196.7 186.4-229.1 315.5-42.7 170.2-200.4 281.9-343.4 314.7-142.9 32.9-222.2 63.3-286.1 295z"/>
					<path id="&lt;Path&gt;" class="s3" d="m2980.5 548.1c-86.1 6.4-170.7 30.3-248 69.8-38.7 19.6-74.9 44.3-107.6 73.3-32.3 29.2-61.1 62.8-83.6 100.3l-8.4 14.1c-2.7 4.8-5 9.7-7.6 14.6-2.4 4.8-5.1 9.7-7.3 14.6l-6.8 14.6c-9 19.4-18 38.9-26.8 58.5q-26.4 58.7-50.9 118.2c-32.8 79.4-63.1 159.7-88.5 241.8-0.6 2 0.5 4.1 2.5 4.7 1.9 0.6 3.9-0.4 4.6-2.3v-0.1c14.8-40 30.4-79.9 46.8-119.4q24.2-59.4 49.9-118.2l25.7-58.8 26.5-58.4c8.8-19.5 17.8-38.9 26.9-58.2l6.8-14.6c2.2-4.8 4.7-9.3 7.1-14.1 2.4-4.6 4.6-9.4 7.2-13.9l7.9-13.6c21.3-36.2 49-68.3 79.7-97 15.6-14 31.8-27.5 49.2-39.4l6.5-4.6 6.6-4.3c4.4-2.9 8.8-5.9 13.2-8.6 9.1-5.5 18.1-11 27.4-16 37.1-20.5 76.6-36.4 117-49.4 40.5-12.9 82.3-22.5 124.4-27.6h0.2c1.6-0.2 2.8-1.7 2.6-3.4-0.2-1.6-1.6-2.7-3.2-2.6z"/>
				</g>
				<g id="&lt;Group&gt;">
					<path id="&lt;Path&gt;" class="s4" d="m2547.8 1495.1c-21.9 137.1 14.5 191 35.4 241.2 3.8 8.9 9.1 21.5 14.9 36.6l-19.3 9c-5.5-21.8-12.2-43.4-20.5-63.6-57-139.2-135.4-385.7-83.4-579.5 52-193.9 174.4-266.9 395.5-216.8 184.2 41.8 293.3 55.3 347.2 42 13.4-3.3 26.1 7.6 25.3 21.3-4.3 73.1-30.8 248.9-185.4 310.1-197.1 78-487.8 62.6-509.7 199.7z"/>
					<path id="&lt;Path&gt;" class="s5" d="m2894.2 1114.9c-15.4-5.1-30.9-8.9-46.6-12.2-15.6-3.3-31.5-6-47.5-7.8-31.9-3.7-64.5-4.3-96.8 0-16.2 2.1-32.3 5.5-48 10.6-15.7 5.2-30.9 12-45.1 21-3.5 2.3-7.1 4.5-10.4 7-3.3 2.6-6.7 5.1-9.8 7.8l-18 16.5-16.9 17.7-15.5 19.1c-19.8 26.1-34.7 56-44.1 87.3-9.6 31.3-13.3 63.9-13.8 96.2l-0.2 12.1c-0.1 4 0.3 8 0.4 12 0.5 8.1 0.7 16.1 1.3 24.1l2.6 24c0.7 8 2.4 15.8 3.7 23.7 5 31.7 12.9 62.7 21.5 93.3 0.4 1.8 2.2 2.8 3.9 2.3 1.7-0.5 2.6-2.1 2.3-3.8v-0.1c-6.4-31-13-62-16.4-93.3-2.2-15.6-3.1-31.3-4.4-47-0.4-7.8-0.3-15.6-0.6-23.5 0-3.9-0.3-7.8 0-11.7l0.5-11.7c1.3-31.2 6.1-62.1 15.4-91.5 9.3-29.5 23.8-57 42.4-81.5l14.6-17.8 16.1-16.7 17.2-15.6c2.9-2.5 5.9-4.7 8.8-7 2.9-2.4 6.2-4.3 9.3-6.4 12.6-8.1 26.5-14.5 40.9-19.4 14.4-5 29.4-8.5 44.7-10.9 30.5-4.8 61.9-5.3 93.2-3.4 15.7 1.1 31.3 2.5 46.9 4.7 15.6 2.2 31.2 4.9 46.5 8.3l0.1 0.1c1.8 0.4 3.6-0.8 4-2.6 0.4-1.7-0.6-3.3-2.2-3.9z"/>
				</g>
			</g>
			<g id="&lt;Group&gt;">
				<path id="&lt;Path&gt;" class="s6" d="m587.1 937.4c0-96.4 78.1-174.5 174.5-174.5h1483.4c81.9 0 149.4 64.2 153.5 145.9l109.5 2150.7c3.3 64-47.1 117.9-111.1 119.1l-1700.2 30.9c-60.2 1.1-109.6-47.4-109.6-107.5z"/>
				<g id="&lt;Group&gt;">
					<path id="&lt;Path&gt;" class="s4" d="m708.7 796c-0.2-30.8 26.9-54.6 57.4-50.5 202.6 27.5 899.2 112.4 1475.2 68.2 26.3-2 49 17.9 50.4 44.2l114.9 2160.3c1.5 29.7-21.1 55-50.7 56.7-242.2 14.4-1239.8 69.8-1595.7 32.5-21.6-2.3-38.1-20.5-38.2-42.3z"/>
					<path id="&lt;Path&gt;" class="s2" d="m732.5 850.2c-0.1-29.7 25.9-52.6 55.3-48.7 195 26.5 865.4 108.2 1419.6 65.7 25.3-1.9 47.3 17.2 48.6 42.5l110.5 2079c1.5 28.5-20.3 52.9-48.8 54.6-233.1 13.8-1193.1 67.1-1535.5 31.2-20.9-2.2-36.7-19.7-36.8-40.7z"/>
					<path id="&lt;Path&gt;" class="s7" d="m913 1010.5l20.7 445.7c0.7 14.8 12.7 26.6 27.5 27 82.6 2.3 339.8 8.6 485 1 16.4-0.8 29.4-14.1 30-30.6 2.7-83.5 8.8-326.8-10.2-428.5-3.1-16.5-17.2-28.5-33.9-29.1l-487.9-17c-17.6-0.7-32 13.9-31.2 31.5z"/>
					<path id="&lt;Path&gt;" class="s8" d="m1289.6 1169.8c0 52.9-42.9 95.8-95.8 95.8-53 0-95.9-42.9-95.9-95.8 0-52.9 42.9-95.8 95.9-95.8 52.9 0 95.8 42.9 95.8 95.8z"/>
					<path id="&lt;Path&gt;" class="s9" d="m1048.2 1451.1h305.3c18.7 0 29.9-20.6 19.8-36.4-25.9-40.6-80.2-100.2-174.1-97.5-90.6 2.6-144.2 56.4-171.2 95-11.5 16.4 0.2 38.9 20.2 38.9z"/>
					<g id="&lt;Group&gt;" style="opacity: .6">
						<path id="&lt;Path&gt;" class="s0" d="m2146.6 1049.3c2.4 0 4.4-2 4.3-4.5l-0.6-21c-0.1-2.4-2.1-4.5-4.6-4.5l-560.9-10c-2.4-0.1-3.7 1.8-2.9 4.1l11.1 31.7c0.8 2.3 3.5 4.2 5.9 4.2z"/>
					</g>
					<g id="&lt;Group&gt;" style="opacity: .6">
						<path id="&lt;Path&gt;" class="s0" d="m1584.8 1092.4c-2.4-0.1-3.7 1.8-2.9 4.1l11.1 31.7c0.8 2.3 3.5 4.2 5.9 4.2h547.7c2.4 0 4.4-2 4.3-4.5l-0.6-21c-0.1-2.5-2.1-4.5-4.6-4.5z"/>
					</g>
					<g id="&lt;Group&gt;" style="opacity: .6">
						<path id="&lt;Path&gt;" class="s0" d="m1584.8 1176.7c-2.4-0.1-3.7 1.8-2.9 4.1l11.1 31.7c0.8 2.3 3.5 4.2 5.9 4.2h547.7c2.4 0 4.4-2 4.3-4.5l-0.6-21c-0.1-2.5-2.1-4.5-4.6-4.5z"/>
					</g>
					<g id="&lt;Group&gt;" style="opacity: .6">
						<path id="&lt;Path&gt;" class="s0" d="m2198.6 1623.2c2.4 0 4.3-2 4.1-4.4l-1.4-21.1c-0.1-2.4-2.3-4.4-4.7-4.5l-1279.3-10c-2.4-0.1-3.2 1.5-1.7 3.4l26.4 33.1c1.5 1.9 4.8 3.5 7.2 3.5z"/>
					</g>
					<g id="&lt;Group&gt;" style="opacity: .6">
						<path id="&lt;Path&gt;" class="s0" d="m917.3 1666.3c-2.4-0.1-3.2 1.5-1.7 3.4l26.4 33.1c1.5 1.9 4.8 3.5 7.2 3.5h1249.4c2.4 0 4.3-2 4.1-4.5l-1.4-21c-0.1-2.4-2.3-4.4-4.7-4.5z"/>
					</g>
					<g id="&lt;Group&gt;">
						<path id="&lt;Compound Path&gt;" fill-rule="evenodd" class="s0" d="m1086.3 2233q-0.1 0-0.3 0l-105.7-1c-15.2-0.2-27.6-10.6-29.1-24.2l-9.3-88.8c-0.5-5.2 1.1-10.3 4.6-14.5 3.9-4.6 9.8-7.5 16.2-8 8.9-0.6 21.4-1.7 34.7-2.8 28-2.4 62.8-5.3 82.4-5.6 14.2 0 26.3 8.4 29.6 20.7 5.6 20.4 5.1 59 4 100.1-0.3 13.3-12.4 24.1-27.1 24.1zm-123.1-128.4c-4.2 0.3-8 2.2-10.5 5.1-2 2.5-3 5.5-2.7 8.5l9.3 88.7c1 9.6 10.1 16.8 21 16.9l105.8 1.1q0.1 0 0.2 0c10.3 0 18.8-7.3 19-16.2 1-40.5 1.5-78.4-3.7-97.7-2.3-8.7-11.3-14.7-21.7-14.8-19.3 0.3-53.9 3.2-81.8 5.6-13.3 1.1-25.9 2.2-34.9 2.8z"/>
						<path id="&lt;Path&gt;" class="s10" d="m974.6 2113.8c22.2-1.5 70.5-6.4 93.5-6.7 9.7-0.1 18.2 5.7 20.4 14.1 4.5 16.4 3.9 49 3.1 79.1-0.2 9-8.5 16.1-18.6 16.1l-84.5-0.9c-10.4-0.1-19.1-7.1-20-16.4l-7.5-70.9c-0.7-7.3 5.4-13.8 13.6-14.4z"/>
						<g id="&lt;Group&gt;" style="opacity: .6">
							<path id="&lt;Path&gt;" class="s0" d="m1179.3 2174c3 11.7 13.6 19.7 25.6 19.6l978.8-8.3c11-0.1 19.9-9.3 19.6-20.3-0.2-10.8-9-19.4-19.7-19.5l-978.8-4.4c-17.3-0.1-30 16.2-25.5 32.9z"/>
						</g>
						<path id="&lt;Path&gt;" class="s11" d="m979.1 2127.7c7.9-4.6 18-1.8 22.4 6.1l20.9 37.4c2.1 3.8 7.5 3.5 9.3-0.4l51.7-115.2c2.6-5.8 11.2-3.8 11.1 2.5-0.5 35.2-9.9 102.2-66.2 158.3 0 0-31-12.1-56-66.9-3.6-8-0.7-17.4 6.8-21.8z"/>
						<path id="&lt;Compound Path&gt;" fill-rule="evenodd" class="s0" d="m1086.3 2459.7q-0.1 0-0.3 0l-105.7-1c-15.2-0.2-27.6-10.6-29.1-24.2l-9.3-88.8c-0.5-5.2 1.1-10.3 4.6-14.5 3.9-4.6 9.8-7.5 16.2-7.9 8.9-0.7 21.4-1.7 34.7-2.9 28-2.3 62.8-5.3 82.4-5.5q0.2 0 0.5-0.1c13.9 0 25.8 8.5 29.1 20.8 5.6 20.3 5.1 58.9 4 100-0.3 13.4-12.4 24.1-27.1 24.1zm-123.1-128.3c-4.2 0.2-8 2.1-10.5 5.1-2 2.4-3 5.4-2.7 8.4l9.3 88.8c1 9.5 10.1 16.8 21 16.9l105.8 1q0.1 0 0.2 0c10.3 0 18.8-7.2 19-16.2 1-40.5 1.5-78.4-3.7-97.7-2.3-8.7-11.5-14.9-21.7-14.7-19.3 0.2-53.9 3.2-81.8 5.5-13.3 1.2-25.9 2.2-34.9 2.9z"/>
						<path id="&lt;Path&gt;" class="s10" d="m974.6 2340.5c22.2-1.5 70.5-6.4 93.5-6.7 9.7-0.1 18.2 5.8 20.4 14.2 4.5 16.3 3.9 48.9 3.1 79-0.2 9-8.5 16.2-18.6 16.1l-84.5-0.8c-10.4-0.1-19.1-7.2-20-16.5l-7.5-70.9c-0.7-7.3 5.4-13.8 13.6-14.4z"/>
						<g id="&lt;Group&gt;" style="opacity: .6">
							<path id="&lt;Path&gt;" class="s0" d="m1179.3 2400.8c3 11.6 13.6 19.6 25.6 19.5l978.8-8.3c11-0.1 19.9-9.2 19.6-20.3-0.2-10.8-9-19.4-19.7-19.4l-978.8-4.5c-17.3-0.1-30 16.3-25.5 33z"/>
						</g>
						<path id="&lt;Path&gt;" class="s12" d="m979.1 2354.4c7.9-4.6 18-1.8 22.4 6.1l20.9 37.4c2.1 3.8 7.5 3.5 9.3-0.4l51.7-115.2c2.6-5.7 11.2-3.8 11.1 2.5-0.5 35.3-9.9 102.2-66.2 158.3 0 0-31-12-56-66.9-3.6-7.9-0.7-17.4 6.8-21.8z"/>
						<path id="&lt;Compound Path&gt;" fill-rule="evenodd" class="s0" d="m1086.3 2686.4q-0.1 0-0.3 0l-105.7-1c-15.2-0.1-27.6-10.5-29.1-24.2l-9.3-88.7c-0.5-5.2 1.1-10.4 4.6-14.5 3.9-4.7 9.8-7.6 16.2-8 8.9-0.6 21.4-1.7 34.7-2.8 28-2.4 62.8-5.4 82.4-5.6q0.2 0 0.5 0c13.9 0 25.8 8.4 29.1 20.7 5.6 20.4 5.1 58.9 4 100-0.3 13.4-12.4 24.1-27.1 24.1zm-123.1-128.3c-4.2 0.3-8 2.1-10.5 5.1-2 2.4-3 5.4-2.7 8.4l9.3 88.8c1 9.5 10.1 16.8 21 16.9l105.8 1q0.1 0 0.2 0c10.3 0 18.8-7.2 19-16.2 1-40.4 1.5-78.4-3.7-97.7-2.3-8.6-11.5-14.9-21.7-14.7-19.3 0.2-53.9 3.2-81.8 5.6-13.3 1.1-25.9 2.2-34.9 2.8z"/>
						<path id="&lt;Path&gt;" class="s10" d="m974.6 2567.2c22.2-1.5 70.5-6.4 93.5-6.7 9.7-0.1 18.2 5.8 20.4 14.2 4.5 16.3 3.9 48.9 3.1 79-0.2 9-8.5 16.2-18.6 16.1l-84.5-0.8c-10.4-0.1-19.1-7.2-20-16.4l-7.5-71c-0.7-7.3 5.4-13.8 13.6-14.4z"/>
						<g id="&lt;Group&gt;" style="opacity: .6">
							<path id="&lt;Path&gt;" class="s0" d="m1179.3 2627.5c3 11.6 13.6 19.7 25.6 19.6l978.8-8.4c11-0.1 19.9-9.2 19.6-20.3-0.2-10.7-9-19.4-19.7-19.4l-978.8-4.5c-17.3 0-30 16.3-25.5 33z"/>
						</g>
						<path id="&lt;Path&gt;" class="s13" d="m979.1 2581.2c7.9-4.6 18-1.9 22.4 6.1l20.9 37.4c2.1 3.7 7.5 3.5 9.3-0.4l51.7-115.3c2.6-5.7 11.2-3.8 11.1 2.5-0.5 35.3-9.9 102.3-66.2 158.3 0 0-31-12-56-66.9-3.6-7.9-0.7-17.3 6.8-21.7z"/>
						<path id="&lt;Compound Path&gt;" fill-rule="evenodd" class="s0" d="m1086.3 2913.2q-0.1 0-0.3 0l-105.7-1.1c-15.2-0.1-27.6-10.5-29.1-24.1l-9.3-88.8c-0.5-5.2 1.1-10.4 4.6-14.5 3.9-4.6 9.8-7.6 16.2-8 8.9-0.6 21.4-1.7 34.7-2.8 28-2.4 62.8-5.3 82.4-5.6q0.2 0 0.5 0c13.9 0 25.8 8.5 29.1 20.7 5.6 20.4 5.1 59 4 100.1-0.3 13.3-12.4 24.1-27.1 24.1zm-123.1-128.4c-4.2 0.3-8 2.2-10.5 5.1-2 2.5-3 5.5-2.7 8.5l9.3 88.7c1 9.6 10.1 16.8 21 16.9l105.8 1q0.1 0 0.2 0c10.3 0 18.8-7.2 19-16.1 1-40.5 1.5-78.4-3.7-97.8-2.3-8.6-11.5-14.9-21.7-14.7-19.3 0.3-53.9 3.2-81.8 5.6-13.3 1.1-25.9 2.2-34.9 2.8z"/>
						<path id="&lt;Path&gt;" class="s10" d="m974.6 2794c22.2-1.5 70.5-6.4 93.5-6.7 9.7-0.2 18.2 5.7 20.4 14.1 4.5 16.4 3.9 49 3.1 79-0.2 9-8.5 16.2-18.6 16.1l-84.5-0.8c-10.4-0.1-19.1-7.2-20-16.4l-7.5-70.9c-0.7-7.4 5.4-13.9 13.6-14.4z"/>
						<g id="&lt;Group&gt;" style="opacity: .6">
							<path id="&lt;Path&gt;" class="s0" d="m1179.3 2854.2c3 11.6 13.6 19.7 25.6 19.6l978.8-8.4c11 0 19.9-9.2 19.6-20.2-0.2-10.8-9-19.4-19.7-19.5l-978.8-4.4c-17.3-0.1-30 16.2-25.5 32.9z"/>
						</g>
					</g>
					<path id="&lt;Compound Path&gt;" fill-rule="evenodd" class="s0" d="m1071.7 2011.1q-0.2 0-0.3 0l-105.8-1c-15.1-0.1-27.6-10.5-29-24.2l-9.3-88.7c-0.6-5.3 1.1-10.4 4.5-14.6 3.9-4.6 9.8-7.5 16.2-7.9 8.9-0.6 21.5-1.7 34.8-2.8 28-2.4 62.8-5.4 82.4-5.6q0.2 0 0.4 0c13.9 0 25.9 8.4 29.2 20.7 5.5 20.4 5 58.9 4 100-0.4 13.4-12.5 24.1-27.1 24.1zm-123.1-128.3c-4.2 0.3-8.1 2.1-10.5 5.1-2.1 2.4-3.1 5.4-2.7 8.4l9.3 88.8c1 9.5 10 16.8 21 16.9l105.8 1q0.1 0 0.2 0c10.2 0 18.7-7.2 18.9-16.2 1.1-40.5 1.6-78.4-3.7-97.7-2.3-8.7-11.4-14.9-21.6-14.7-19.3 0.2-54 3.2-81.8 5.5-13.4 1.2-25.9 2.3-34.9 2.9z"/>
					<path id="&lt;Path&gt;" class="s10" d="m960 1891.9c22.2-1.5 70.5-6.4 93.4-6.7 9.7-0.1 18.2 5.8 20.5 14.2 4.4 16.3 3.8 48.9 3.1 79-0.3 9-8.5 16.2-18.6 16.1l-84.6-0.8c-10.4-0.1-19-7.2-20-16.4l-7.4-71c-0.8-7.3 5.3-13.8 13.6-14.4z"/>
					<g id="&lt;Group&gt;" style="opacity: .6">
						<path id="&lt;Path&gt;" class="s0" d="m1164.6 1952.2c3.1 11.6 13.6 19.6 25.6 19.5l978.8-8.3c11.1-0.1 19.9-9.2 19.7-20.3-0.2-10.8-9-19.4-19.8-19.4l-978.8-4.5c-17.3-0.1-29.9 16.3-25.5 33z"/>
					</g>
					<path id="&lt;Path&gt;" class="s14" d="m964.5 1905.8c7.8-4.6 17.9-1.8 22.4 6.1l20.8 37.4c2.1 3.8 7.6 3.6 9.3-0.4l51.8-115.2c2.6-5.7 11.1-3.8 11 2.5-0.5 35.3-9.8 102.3-66.2 158.3 0 0-31-12-56-66.9-3.6-7.9-0.6-17.3 6.9-21.8z"/>
				</g>
				<path id="&lt;Compound Path&gt;" fill-rule="evenodd" class="s15" d="m1598.3 680.9l-168.3-14.9-14.1-154.4c-2.9-31 16.5-59.9 46.4-68.8 32.8-9.6 79.4-10.4 133 26.9 105.1 73.1 3 211.2 3 211.2zm-35-128.6c0-23.2-18.8-42-42-42-23.2 0-42 18.8-42 42 0 23.2 18.8 42 42 42 23.2 0 42-18.8 42-42z"/>
				<path id="&lt;Compound Path&gt;" class="s4" d="m1446.8 601.1c-2 0-3.8-1.6-4-3.7l-2.3-24.6c-0.2-2.2 1.5-4.2 3.7-4.4 2.3-0.2 4.2 1.4 4.4 3.6l2.3 24.6c0.2 2.3-1.5 4.2-3.7 4.4q-0.2 0.1-0.4 0.1zm-4.4-48.2c-2.1 0-3.8-1.6-4-3.7l-1.7-18.7c-2.8-29.6 15.9-57.1 44.2-65.5 20.1-5.9 40.8-6.8 61.6-2.5 2.1 0.4 3.6 2.6 3.1 4.8-0.4 2.2-2.6 3.6-4.8 3.1-19.4-3.9-38.8-3.2-57.6 2.4-24.6 7.3-40.8 31.2-38.5 57l1.8 18.6c0.2 2.3-1.5 4.3-3.7 4.5q-0.2 0-0.4 0z"/>
				<path id="&lt;Path&gt;" class="s16" d="m1200.3 765.8v-77.6c0-26.8 22.2-48.3 49-47.4l535.1 18.4c23.8 0.8 43 19.5 44.5 43.2l4.4 74.6z"/>
				<path id="&lt;Path&gt;" class="s4" d="m1399.8 670.1h-23c-2.2 0-4-1.8-4-4.1 0-2.2 1.8-4.1 4-4.1h23c2.3 0 4.1 1.9 4.1 4.1 0 2.3-1.8 4.1-4.1 4.1z"/>
				<path id="&lt;Path&gt;" class="s4" d="m1229.3 741.4c-2.3 0-4.1-1.8-4.1-4.1v-31.4c0-24.2 19.7-44 44-44h84.6c2.3 0 4.1 1.9 4.1 4.1 0 2.3-1.8 4.1-4.1 4.1h-84.6c-19.8 0-35.9 16.1-35.9 35.8v31.4c0 2.3-1.8 4.1-4 4.1z"/>
				<path id="&lt;Path&gt;" class="s17" d="m982.2 785.4c1.3-26.9 23.5-48 50.4-48l935.8-0.1c33.7 0 62.5 24.3 68.2 57.4l0.8 4.6c6.3 36.3-21.7 69.5-58.5 69.5h-960.2c-22 0-39.6-18.4-38.5-40.4z"/>
			</g>
			<g id="&lt;Group&gt;">
				<g id="&lt;Group&gt;">
					<path id="&lt;Path&gt;" class="s18" d="m1521.5 1449.6c12.7-11.9 29.8-17.8 47.2-16.2 185.2 16.7 530.8-72.6 756.7-303.7 15.6-16 44.2-7 62.2 6.5 251.2 187.7 667.6 226.6 812.1 234.6 29.9 1.6 54.2 24.8 57.3 54.6 131.4 1269.6-695.2 1729.7-866.6 1810.9-18.8 8.8-40.8 7.6-58.5-3.4-854.4-532.3-817.9-1224.4-829.7-1737.3-0.4-17.4 6.6-34.1 19.3-46z"/>
					<path id="&lt;Compound Path&gt;" fill-rule="evenodd" class="s4" d="m2367.2 3144.9c-3.9 0-7.9-1.1-11.4-3.3-327.7-209.6-541.3-460-653-765.8-99.8-273.1-104.7-551.1-109-796.4l-0.5-32.7c-0.2-5.6 2-11 6-15 4-4.1 9.3-6.4 15.1-6.4 202.7 0 507-89.5 730.2-289.5 7.1-6.4 17.7-7.1 25.7-1.8 245.2 162.7 595.1 210.1 781.8 223.9 10.4 0.7 18.5 8.8 19.4 19.1 43.5 495.6-59.6 914.7-306.4 1245.7-184.3 247.2-402.9 376-488.3 419.9-3 1.5-6.3 2.3-9.6 2.3zm-752.6-1609.6c-3.3 0-6.1 1.2-8.2 3.4-2.1 2.1-3.2 4.9-3.2 7.9l0.6 32.7c4.3 244.4 9.2 521.5 108.4 793.1 110.9 303.6 323.2 552.4 649 760.7 3.3 2.2 7.6 2.4 11.1 0.6 84.8-43.6 301.8-171.5 484.8-417 245.3-328.9 347.7-745.7 304.5-1238.8-0.5-5.4-4.8-9.7-10.2-10.1-187.7-13.8-539.5-61.5-786.7-225.5-4.2-2.8-9.7-2.4-13.5 1-225.1 201.7-532.2 292-736.6 292z"/>
				</g>
			</g>
			<g id="&lt;Group&gt;">
				<path id="&lt;Path&gt;" class="s19" d="m450.5 2957.6l7 218.3c1.2 38 32.5 68.3 70.7 68.5l522.7 3.1c25.6 0.2 47.4-18.4 51.1-43.6 8.2-55.1 18.6-153.7 6.9-246.3z"/>
				<path id="&lt;Compound Path&gt;" class="s0" d="m1032.4 3234.1h-3.8c-0.4 0-0.7-0.3-0.7-0.7 0-0.3 0.3-0.6 0.7-0.6h3.8c0.3 0 0.6 0.3 0.6 0.7 0 0.3-0.3 0.6-0.6 0.6zm8.9-0.1c-0.4 0-0.6-0.2-0.7-0.5 0-0.4 0.3-0.7 0.6-0.7q1.9-0.1 3.8-0.4c0.3 0 0.6 0.2 0.7 0.5 0 0.4-0.2 0.7-0.6 0.8q-1.9 0.2-3.8 0.3 0 0 0 0zm-21.6 0h-3.8c-0.4 0-0.6-0.3-0.6-0.6 0-0.4 0.2-0.7 0.6-0.7l3.8 0.1c0.4 0 0.6 0.3 0.6 0.6 0 0.4-0.3 0.6-0.6 0.6zm-12.7 0l-3.8-0.1c-0.4 0-0.6-0.2-0.6-0.6 0-0.3 0.3-0.6 0.6-0.6h3.8c0.4 0 0.6 0.3 0.6 0.6 0 0.4-0.2 0.7-0.6 0.7zm-12.7-0.1h-3.8c-0.3 0-0.6-0.3-0.6-0.7 0-0.3 0.3-0.6 0.6-0.6h3.8c0.4 0 0.7 0.3 0.7 0.7-0.1 0.3-0.3 0.6-0.7 0.6zm-12.7-0.1h-3.8c-0.3 0-0.6-0.3-0.6-0.6 0-0.4 0.3-0.7 0.6-0.7h3.8c0.4 0 0.7 0.3 0.7 0.7 0 0.3-0.3 0.6-0.7 0.6zm-12.7-0.1h-3.8c-0.3 0-0.6-0.3-0.6-0.6 0-0.4 0.3-0.7 0.6-0.7l3.8 0.1c0.4 0 0.7 0.3 0.7 0.6 0 0.4-0.3 0.6-0.7 0.6zm-12.7 0l-3.8-0.1c-0.3 0-0.6-0.2-0.6-0.6 0-0.3 0.3-0.6 0.6-0.6h3.8c0.4 0 0.7 0.3 0.7 0.6 0 0.4-0.3 0.7-0.7 0.7zm-12.6-0.1h-0.1-3.8c-0.3 0-0.6-0.3-0.6-0.7 0-0.3 0.3-0.6 0.6-0.6h3.9c0.3 0 0.6 0.3 0.6 0.7 0 0.3-0.3 0.6-0.6 0.6zm-12.7-0.1h-3.9c-0.3 0-0.6-0.3-0.6-0.6 0-0.4 0.3-0.7 0.7-0.7h3.8c0.3 0 0.6 0.3 0.6 0.7 0 0.3-0.3 0.6-0.6 0.6zm-12.7-0.1h-3.8c-0.4 0-0.7-0.3-0.7-0.6 0-0.4 0.3-0.7 0.7-0.7l3.8 0.1c0.3 0 0.6 0.3 0.6 0.6 0 0.4-0.3 0.6-0.6 0.6zm-12.7 0l-3.8-0.1c-0.4 0-0.7-0.2-0.7-0.6 0-0.3 0.3-0.6 0.7-0.6h3.8c0.3 0 0.6 0.3 0.6 0.6 0 0.4-0.3 0.7-0.6 0.7zm-12.7-0.1h-3.8c-0.4 0-0.7-0.3-0.7-0.7 0-0.3 0.3-0.6 0.7-0.6h3.8c0.3 0 0.6 0.3 0.6 0.7 0 0.3-0.3 0.6-0.6 0.6zm-12.7-0.1h-3.8c-0.4 0-0.6-0.3-0.6-0.6 0-0.4 0.2-0.7 0.6-0.7h3.8c0.4 0 0.6 0.3 0.6 0.7 0 0.3-0.3 0.6-0.6 0.6zm-12.7-0.1h-3.8c-0.4 0-0.6-0.3-0.6-0.6 0-0.4 0.2-0.7 0.6-0.7l3.8 0.1c0.4 0 0.6 0.3 0.6 0.6 0 0.4-0.2 0.6-0.6 0.6zm-12.7 0l-3.8-0.1c-0.3 0-0.6-0.2-0.6-0.6 0-0.3 0.3-0.6 0.6-0.6h3.8c0.4 0 0.7 0.3 0.6 0.6 0 0.4-0.2 0.7-0.6 0.7zm-12.7-0.1h-3.8c-0.3 0-0.6-0.3-0.6-0.7 0-0.3 0.3-0.6 0.6-0.6h3.8c0.4 0 0.7 0.3 0.7 0.7 0 0.3-0.3 0.6-0.7 0.6zm-12.7-0.1h-3.8c-0.3 0-0.6-0.3-0.6-0.6 0-0.4 0.3-0.7 0.6-0.7h3.8c0.4 0 0.7 0.3 0.7 0.7 0 0.3-0.3 0.6-0.7 0.6zm-12.7-0.1h-3.8c-0.3 0-0.6-0.3-0.6-0.6 0-0.4 0.3-0.6 0.6-0.7l3.8 0.1c0.4 0 0.7 0.3 0.7 0.6 0 0.4-0.3 0.6-0.7 0.6zm-12.7 0l-3.8-0.1c-0.3 0-0.6-0.2-0.6-0.6 0-0.3 0.3-0.6 0.6-0.6h3.9c0.3 0 0.6 0.3 0.6 0.6 0 0.4-0.3 0.7-0.7 0.7zm-12.6-0.1h-3.9c-0.3 0-0.6-0.3-0.6-0.7 0-0.3 0.3-0.6 0.7-0.6h3.8c0.3 0 0.6 0.3 0.6 0.7 0 0.3-0.3 0.6-0.6 0.6zm-12.7-0.1h-3.8c-0.4 0-0.7-0.3-0.7-0.6 0-0.4 0.3-0.7 0.7-0.7h3.8c0.3 0 0.6 0.3 0.6 0.7 0 0.3-0.3 0.6-0.6 0.6zm-12.7-0.1h-3.8c-0.4 0-0.7-0.3-0.7-0.6 0-0.4 0.3-0.7 0.7-0.7l3.8 0.1c0.3 0 0.6 0.3 0.6 0.6 0 0.4-0.3 0.6-0.6 0.6zm-12.7 0l-3.8-0.1c-0.4 0-0.7-0.2-0.7-0.6 0-0.3 0.3-0.6 0.7-0.6h3.8c0.3 0 0.6 0.3 0.6 0.6 0 0.4-0.3 0.7-0.6 0.7zm-12.7-0.1h-3.8c-0.4 0-0.6-0.3-0.6-0.7 0-0.3 0.2-0.6 0.6-0.6h3.8c0.3 0 0.6 0.3 0.6 0.7 0 0.3-0.3 0.6-0.6 0.6zm-12.7-0.1h-3.8c-0.4 0-0.6-0.3-0.6-0.6 0-0.4 0.2-0.7 0.6-0.7h3.8c0.4 0 0.6 0.3 0.6 0.7 0 0.3-0.2 0.6-0.6 0.6zm-12.7-0.1h-3.8c-0.3 0-0.6-0.3-0.6-0.6 0-0.4 0.3-0.7 0.6-0.7l3.8 0.1c0.4 0 0.6 0.3 0.6 0.6 0 0.4-0.2 0.6-0.6 0.6zm-12.7 0l-3.8-0.1c-0.3 0-0.6-0.2-0.6-0.6 0-0.3 0.3-0.6 0.6-0.6h3.8c0.4 0 0.7 0.3 0.7 0.6 0 0.4-0.3 0.7-0.7 0.7zm-12.7-0.1h-3.8c-0.3 0-0.6-0.3-0.6-0.7 0-0.3 0.3-0.6 0.6-0.6h3.8c0.4 0 0.7 0.3 0.7 0.7 0 0.3-0.3 0.6-0.7 0.6zm-12.7-0.1h-3.8c-0.3 0-0.6-0.3-0.6-0.6 0-0.4 0.3-0.7 0.6-0.7h3.8c0.4 0 0.7 0.3 0.7 0.7 0 0.3-0.3 0.6-0.7 0.6zm-12.7-0.1h-3.8c-0.3 0-0.6-0.3-0.6-0.6 0-0.4 0.3-0.6 0.6-0.7l3.9 0.1c0.3 0 0.6 0.3 0.6 0.6 0 0.4-0.3 0.6-0.7 0.6zm-12.6 0l-3.9-0.1c-0.3 0-0.6-0.2-0.6-0.6 0-0.3 0.3-0.6 0.6-0.6h0.1 3.8c0.3 0 0.6 0.3 0.6 0.6 0 0.4-0.3 0.7-0.6 0.7zm-12.7-0.1h-3.8c-0.4 0-0.7-0.3-0.7-0.7 0-0.3 0.3-0.6 0.7-0.6h3.8c0.3 0 0.6 0.3 0.6 0.7 0 0.3-0.3 0.6-0.6 0.6zm-12.7-0.1h-3.8c-0.4 0-0.7-0.3-0.7-0.6 0-0.4 0.3-0.7 0.7-0.7h3.8c0.3 0 0.6 0.3 0.6 0.7 0 0.3-0.3 0.6-0.6 0.6zm427.4-0.1c-0.3 0-0.5-0.1-0.6-0.4-0.1-0.3 0.1-0.7 0.4-0.8q1.8-0.6 3.5-1.3c0.3-0.1 0.7 0 0.8 0.3 0.2 0.4 0 0.7-0.3 0.9q-1.8 0.7-3.6 1.3-0.1 0-0.2 0zm-440.1 0h-3.8c-0.4 0-0.7-0.3-0.7-0.6 0-0.4 0.4-0.7 0.7-0.6h3.8c0.3 0 0.6 0.3 0.6 0.6 0 0.4-0.3 0.6-0.6 0.6zm-12.7 0l-3.8-0.1c-0.4 0-0.7-0.2-0.6-0.6 0-0.3 0.2-0.6 0.6-0.6h3.8c0.3 0 0.6 0.3 0.6 0.6 0 0.4-0.3 0.7-0.6 0.7zm-12.7-0.1h-3.8c-0.4 0-0.6-0.3-0.6-0.7 0-0.3 0.2-0.6 0.6-0.6h3.8c0.4 0 0.6 0.3 0.6 0.7 0 0.3-0.3 0.6-0.6 0.6zm-12.7-0.1h-3.8c-0.4 0-0.6-0.3-0.6-0.6 0-0.4 0.3-0.7 0.6-0.7h3.8c0.4 0.1 0.6 0.3 0.6 0.7 0 0.3-0.2 0.6-0.6 0.6zm-12.7-0.1h-3.8c-0.3 0-0.6-0.3-0.6-0.6 0-0.4 0.3-0.6 0.6-0.6h3.8c0.4 0 0.7 0.3 0.7 0.6 0 0.4-0.3 0.6-0.7 0.6zm-12.7 0l-3.8-0.1c-0.3 0-0.6-0.2-0.6-0.6 0-0.3 0.3-0.6 0.6-0.6h3.8c0.4 0 0.7 0.3 0.7 0.6 0 0.4-0.3 0.7-0.7 0.7zm-12.7-0.2q0 0 0 0-1.9-0.1-3.8-0.3c-0.4 0-0.6-0.3-0.6-0.7 0.1-0.3 0.4-0.6 0.7-0.5q1.9 0.2 3.8 0.3c0.3 0 0.6 0.3 0.6 0.6 0 0.4-0.3 0.6-0.7 0.6zm-12.5-1.8q-0.1 0-0.2 0-1.8-0.4-3.7-1c-0.3-0.1-0.5-0.5-0.4-0.8 0.1-0.3 0.5-0.5 0.8-0.4q1.8 0.5 3.6 1c0.4 0.1 0.6 0.4 0.5 0.7-0.1 0.3-0.3 0.5-0.6 0.5zm540.2-3.2c-0.2 0-0.4-0.1-0.5-0.2-0.2-0.3-0.2-0.7 0.1-0.9q1.6-1.1 3.1-2.2c0.3-0.2 0.7-0.2 0.9 0.1 0.2 0.3 0.2 0.7-0.1 0.9q-1.5 1.2-3.2 2.2-0.1 0.1-0.3 0.1zm-552.2-0.9q-0.1 0-0.2 0-1.8-0.8-3.5-1.7c-0.3-0.2-0.4-0.6-0.3-0.9 0.2-0.3 0.6-0.4 0.9-0.3q1.7 0.9 3.4 1.7c0.3 0.1 0.4 0.5 0.3 0.8-0.1 0.3-0.3 0.4-0.6 0.4zm-11-6.3q-0.2 0-0.3-0.1-1.6-1.1-3.1-2.3c-0.3-0.2-0.4-0.6-0.1-0.9 0.2-0.2 0.6-0.3 0.9-0.1q1.4 1.2 3 2.3c0.3 0.2 0.3 0.6 0.1 0.9-0.1 0.1-0.3 0.2-0.5 0.2zm572.8-1q-0.3 0-0.4-0.2c-0.3-0.2-0.3-0.6-0.1-0.9q1.3-1.4 2.4-2.9c0.2-0.2 0.6-0.3 0.9-0.1 0.3 0.2 0.3 0.6 0.1 0.9q-1.2 1.5-2.4 3-0.2 0.2-0.5 0.2zm-582.4-7.2q-0.3 0-0.5-0.2-1.3-1.3-2.6-2.8c-0.2-0.3-0.2-0.7 0.1-0.9 0.2-0.2 0.6-0.2 0.9 0.1q1.2 1.4 2.5 2.8c0.3 0.2 0.3 0.6 0 0.9q-0.2 0.1-0.4 0.1zm589.5-3.2q-0.1 0-0.3-0.1c-0.3-0.2-0.4-0.6-0.2-0.9q0.8-1.6 1.5-3.4c0.2-0.3 0.5-0.5 0.9-0.3 0.3 0.1 0.4 0.5 0.3 0.8q-0.7 1.8-1.6 3.5c-0.1 0.2-0.3 0.4-0.6 0.4zm-597.5-6.6c-0.2 0-0.4-0.1-0.5-0.3q-1.1-1.6-2.1-3.3c-0.1-0.3 0-0.7 0.3-0.8 0.3-0.2 0.7-0.1 0.8 0.2q1 1.6 2 3.2c0.2 0.3 0.2 0.7-0.1 0.9q-0.2 0.1-0.4 0.1zm601.7-5.4q0 0-0.1 0c-0.3-0.1-0.6-0.4-0.5-0.7q0.3-1.4 0.5-2.9l0.1-0.9c0.1-0.3 0.4-0.5 0.8-0.5 0.3 0.1 0.6 0.4 0.5 0.7l-0.1 0.9q-0.2 1.5-0.6 2.9c0 0.3-0.3 0.5-0.6 0.5zm-607.7-5.8c-0.2 0-0.4-0.2-0.5-0.4q-0.8-1.8-1.4-3.6c-0.1-0.3 0-0.7 0.4-0.8 0.3-0.1 0.6 0.1 0.8 0.4q0.6 1.8 1.3 3.5c0.2 0.3 0 0.7-0.3 0.8q-0.1 0.1-0.3 0.1zm609.6-6.7q0 0-0.1 0c-0.3-0.1-0.5-0.4-0.5-0.8q0.3-1.8 0.5-3.7c0.1-0.4 0.4-0.6 0.7-0.6 0.4 0.1 0.6 0.4 0.6 0.7q-0.3 2-0.5 3.8c-0.1 0.3-0.4 0.6-0.7 0.6zm-613.3-5.4c-0.3 0-0.6-0.2-0.6-0.5q-0.4-1.9-0.7-3.8c-0.1-0.4 0.2-0.7 0.5-0.7 0.4-0.1 0.7 0.2 0.7 0.5q0.3 1.9 0.7 3.7c0.1 0.4-0.2 0.7-0.5 0.8q-0.1 0-0.1 0zm615-7.2q0 0-0.1 0c-0.3-0.1-0.6-0.4-0.5-0.7l0.5-3.8c0-0.4 0.3-0.6 0.7-0.6 0.3 0.1 0.6 0.4 0.5 0.8l-0.5 3.7c0 0.4-0.3 0.6-0.6 0.6zm-616.4-5.4c-0.4 0-0.7-0.3-0.7-0.6l-0.1-3.8c0-0.4 0.3-0.7 0.6-0.7 0.4 0 0.7 0.3 0.7 0.6l0.1 3.8c0 0.4-0.3 0.7-0.6 0.7zm618-7.2q-0.1 0-0.1 0c-0.4-0.1-0.6-0.4-0.6-0.7q0.2-1.9 0.5-3.8c0-0.4 0.3-0.6 0.7-0.6 0.3 0.1 0.6 0.4 0.5 0.7q-0.2 1.9-0.4 3.8c0 0.3-0.3 0.6-0.6 0.6zm-618.4-5.5c-0.4 0-0.7-0.3-0.7-0.6l-0.1-3.8c0-0.4 0.3-0.7 0.6-0.7 0.4 0 0.7 0.3 0.7 0.6l0.1 3.8c0 0.4-0.3 0.7-0.6 0.7zm619.8-7.1c0 0-0.1 0-0.1 0-0.3-0.1-0.6-0.4-0.6-0.7q0.2-1.9 0.4-3.8c0.1-0.4 0.4-0.6 0.7-0.6 0.4 0 0.6 0.4 0.6 0.7q-0.2 1.9-0.4 3.8c0 0.3-0.3 0.6-0.6 0.6zm-620.2-5.6c-0.4 0-0.6-0.3-0.6-0.6l-0.2-3.8c0-0.4 0.3-0.6 0.6-0.7 0.3 0 0.7 0.3 0.7 0.7l0.1 3.8c0 0.3-0.2 0.6-0.6 0.6zm621.4-7.1q0 0 0 0c-0.4 0-0.6-0.3-0.6-0.7q0.2-1.8 0.3-3.7c0.1-0.4 0.4-0.7 0.7-0.6 0.4 0 0.6 0.3 0.6 0.7q-0.2 1.9-0.3 3.8c-0.1 0.3-0.3 0.5-0.7 0.5zm-621.8-5.6c-0.3 0-0.6-0.2-0.6-0.6l-0.2-3.8c0-0.3 0.3-0.6 0.7-0.6 0.3-0.1 0.6 0.2 0.6 0.6l0.1 3.8c0 0.3-0.2 0.6-0.6 0.6zm623-7q-0.1 0-0.1 0c-0.3 0-0.6-0.3-0.6-0.7l0.3-3.8c0-0.3 0.3-0.6 0.7-0.6 0.4 0.1 0.6 0.4 0.6 0.7l-0.3 3.8c0 0.3-0.3 0.6-0.6 0.6zm-623.4-5.7c-0.3 0-0.6-0.2-0.6-0.6l-0.1-3.8c-0.1-0.3 0.2-0.6 0.6-0.6 0.3 0 0.6 0.2 0.6 0.6l0.1 3.8c0.1 0.3-0.2 0.6-0.6 0.6q0 0 0 0zm624.3-7q0 0 0 0c-0.4 0-0.7-0.3-0.6-0.6l0.2-3.8c0-0.4 0.3-0.7 0.7-0.6 0.3 0 0.6 0.3 0.6 0.6l-0.3 3.8c0 0.4-0.3 0.6-0.6 0.6zm-624.7-5.6c-0.3 0-0.6-0.3-0.6-0.7l-0.2-3.8c0-0.3 0.3-0.6 0.7-0.6 0.3-0.1 0.6 0.3 0.6 0.6l0.1 3.8c0.1 0.4-0.2 0.6-0.6 0.7q0 0 0 0zm625.5-7q0 0 0 0c-0.4-0.1-0.7-0.4-0.6-0.7q0.1-1.9 0.2-3.8c0-0.4 0.3-0.6 0.6-0.6 0.4 0 0.6 0.3 0.6 0.7q-0.1 1.9-0.2 3.8c0 0.3-0.3 0.6-0.6 0.6zm-625.9-5.7c-0.3 0-0.6-0.3-0.6-0.6l-0.2-3.8c0-0.4 0.3-0.7 0.7-0.7 0.3 0 0.6 0.3 0.6 0.6l0.1 3.8c0 0.4-0.2 0.7-0.6 0.7q0 0 0 0zm626.5-7c-0.4 0-0.6-0.3-0.6-0.7q0.1-1.9 0.1-3.8c0.1-0.3 0.4-0.6 0.7-0.6 0.3 0 0.6 0.3 0.6 0.7q-0.1 1.9-0.2 3.8c0 0.3-0.2 0.6-0.6 0.6zm-626.9-5.7c-0.4 0-0.6-0.3-0.6-0.6l-0.2-3.8c0-0.4 0.3-0.7 0.6-0.7 0.4 0 0.7 0.3 0.7 0.6l0.1 3.8c0 0.4-0.2 0.7-0.6 0.7q0 0 0 0zm627.4-7c-0.4 0-0.7-0.3-0.7-0.7q0.1-1.9 0.1-3.8c0.1-0.3 0.3-0.6 0.7-0.6 0.3 0 0.6 0.3 0.6 0.7q0 1.9-0.1 3.8c0 0.3-0.3 0.6-0.6 0.6zm-627.8-5.7c-0.4 0-0.6-0.3-0.7-0.6l-0.1-3.8c0-0.4 0.3-0.7 0.6-0.7 0.3 0 0.7 0.3 0.7 0.6l0.1 3.9c0 0.3-0.2 0.6-0.6 0.6zm628.1-7q0 0 0 0c-0.4 0-0.7-0.3-0.7-0.6q0.1-1.9 0.1-3.8c0-0.4 0.3-0.7 0.6-0.7 0.4 0 0.7 0.3 0.7 0.7q-0.1 1.9-0.1 3.8c0 0.3-0.3 0.6-0.6 0.6zm-628.5-5.7c-0.3 0-0.6-0.2-0.6-0.6l-0.2-3.8c0-0.3 0.3-0.6 0.7-0.7 0.3 0 0.6 0.3 0.6 0.7l0.1 3.8c0 0.3-0.2 0.6-0.6 0.6zm628.6-7c-0.4 0-0.6-0.3-0.6-0.6v-0.3q0-1.8 0-3.5c0-0.4 0.2-0.7 0.6-0.7 0.3 0 0.6 0.3 0.6 0.7q0 1.7 0 3.5v0.3c0 0.3-0.3 0.6-0.6 0.6zm-629-5.7c-0.3 0-0.6-0.2-0.6-0.6l-0.1-3.8c-0.1-0.3 0.2-0.6 0.6-0.6 0.3-0.1 0.6 0.2 0.6 0.6l0.1 3.8c0.1 0.3-0.2 0.6-0.6 0.6zm628.9-7c-0.3 0-0.6-0.2-0.6-0.6q0-1.9-0.1-3.8c0-0.3 0.3-0.6 0.6-0.6 0.3-0.1 0.7 0.2 0.7 0.6q0 1.9 0.1 3.8c0 0.3-0.3 0.6-0.7 0.6zm-629.3-5.6c-0.3 0-0.6-0.3-0.6-0.7l-0.1-3.8c0-0.3 0.2-0.6 0.6-0.6 0.3-0.1 0.6 0.2 0.6 0.6l0.2 3.8c0 0.3-0.3 0.6-0.6 0.7q-0.1 0-0.1 0zm629-7.1c-0.3 0-0.6-0.2-0.6-0.6q-0.1-1.9-0.1-3.8c0-0.3 0.2-0.6 0.6-0.6 0.3-0.1 0.6 0.2 0.6 0.6q0.1 1.9 0.2 3.8c0 0.3-0.3 0.6-0.6 0.6q-0.1 0-0.1 0zm-629.4-5.6c-0.3 0-0.6-0.3-0.6-0.6l-0.1-3.9c0-0.3 0.2-0.6 0.6-0.6 0.3 0 0.6 0.3 0.6 0.6l0.2 3.8c0 0.4-0.3 0.7-0.7 0.7q0 0 0 0zm628.9-7c-0.3 0-0.6-0.3-0.6-0.6q-0.1-1.9-0.2-3.8c0-0.4 0.2-0.7 0.6-0.7 0.3 0 0.6 0.2 0.7 0.6q0.1 1.9 0.2 3.8c0 0.3-0.3 0.6-0.6 0.7zm-629.4-5.7c-0.3 0-0.6-0.3-0.6-0.6l-0.1-3.8c0-0.4 0.3-0.7 0.6-0.7 0.4 0 0.6 0.3 0.7 0.6l0.1 3.8c0 0.4-0.3 0.7-0.6 0.7q0 0-0.1 0zm628.6-7c-0.3 0-0.6-0.3-0.6-0.6q-0.1-1.9-0.3-3.8c0-0.3 0.3-0.6 0.6-0.7 0.4 0 0.7 0.3 0.7 0.6q0.1 1.9 0.3 3.8c0 0.4-0.3 0.7-0.6 0.7q-0.1 0-0.1 0zm-629-5.7c-0.3 0-0.6-0.3-0.6-0.6l-0.1-3.8c0-0.4 0.2-0.7 0.6-0.7 0.3 0 0.6 0.3 0.7 0.6l0.1 3.8c0 0.4-0.3 0.7-0.6 0.7q0 0-0.1 0zm628-7c-0.3 0-0.6-0.2-0.6-0.5q-0.2-1.9-0.3-3.8c-0.1-0.4 0.2-0.7 0.5-0.7 0.4 0 0.7 0.2 0.7 0.6q0.2 1.9 0.4 3.8c0 0.3-0.3 0.6-0.6 0.6q0 0-0.1 0zm-628.4-5.7c-0.3 0-0.6-0.3-0.6-0.6l-0.1-3.8c0-0.4 0.2-0.7 0.6-0.7 0.3 0 0.6 0.3 0.6 0.7l0.2 3.8c0 0.3-0.3 0.6-0.6 0.6zm627.1-6.9c-0.3 0-0.6-0.2-0.6-0.6q-0.2-1.8-0.4-3.7c-0.1-0.4 0.2-0.7 0.5-0.7 0.4-0.1 0.7 0.2 0.7 0.5q0.2 1.9 0.4 3.8c0.1 0.4-0.2 0.7-0.5 0.7q-0.1 0-0.1 0zm-627.6-5.8c-0.3 0-0.6-0.2-0.6-0.6l-0.1-4.4h2.3c0.3 0 0.6 0.2 0.6 0.6 0 0.3-0.3 0.6-0.6 0.6h-1l0.1 3.2c0 0.3-0.3 0.6-0.6 0.6zm623.4-3.8h-3.8c-0.4 0-0.7-0.3-0.7-0.6 0-0.4 0.3-0.6 0.7-0.6h3.8c0.3 0 0.6 0.2 0.6 0.6 0 0.3-0.3 0.6-0.6 0.6zm-12.7 0h-3.8c-0.4 0-0.7-0.3-0.7-0.6 0-0.4 0.3-0.6 0.7-0.6h3.8c0.3 0 0.6 0.2 0.6 0.6 0 0.3-0.3 0.6-0.6 0.6zm-12.7 0h-3.8c-0.4 0-0.7-0.3-0.7-0.6 0-0.4 0.3-0.6 0.7-0.6h3.8c0.3 0 0.6 0.2 0.6 0.6 0 0.3-0.3 0.6-0.6 0.6zm-12.7 0h-3.8c-0.4 0-0.6-0.3-0.6-0.6 0-0.4 0.2-0.6 0.6-0.6h3.8c0.3 0 0.6 0.2 0.6 0.6 0 0.3-0.3 0.6-0.6 0.6zm-12.7 0h-3.8c-0.4 0-0.6-0.3-0.6-0.6 0-0.4 0.2-0.6 0.6-0.6h3.8c0.4 0 0.6 0.2 0.6 0.6 0 0.3-0.2 0.6-0.6 0.6zm-12.7 0h-3.8c-0.3 0-0.6-0.3-0.6-0.6 0-0.4 0.3-0.6 0.6-0.6h3.8c0.4 0 0.6 0.2 0.6 0.6 0 0.3-0.2 0.6-0.6 0.6zm-12.7 0h-3.8c-0.3 0-0.6-0.3-0.6-0.6 0-0.4 0.3-0.6 0.6-0.6h3.8c0.4 0 0.7 0.2 0.7 0.6 0 0.3-0.3 0.6-0.7 0.6zm-12.7 0h-3.8c-0.3 0-0.6-0.3-0.6-0.6 0-0.4 0.3-0.6 0.6-0.6h3.8c0.4 0 0.7 0.2 0.7 0.6 0 0.3-0.3 0.6-0.7 0.6zm-12.7 0h-3.8c-0.3 0-0.6-0.3-0.6-0.6 0-0.4 0.3-0.6 0.6-0.6h3.8c0.4 0 0.7 0.2 0.7 0.6 0 0.3-0.3 0.6-0.7 0.6zm-12.7 0h-3.8c-0.3 0-0.6-0.3-0.6-0.6 0-0.4 0.3-0.6 0.6-0.6h3.8c0.4 0 0.7 0.2 0.7 0.6 0 0.3-0.3 0.6-0.7 0.6zm-12.6 0h-3.9c-0.3 0-0.6-0.3-0.6-0.6 0-0.4 0.3-0.6 0.6-0.6h3.9c0.3 0 0.6 0.2 0.6 0.6 0 0.3-0.3 0.6-0.6 0.6zm-12.7 0h-3.8c-0.4 0-0.7-0.3-0.7-0.6 0-0.4 0.3-0.6 0.7-0.6h3.8c0.3 0 0.6 0.2 0.6 0.6 0 0.3-0.3 0.6-0.6 0.6zm-12.7 0h-3.8c-0.4 0-0.7-0.3-0.7-0.6 0-0.4 0.3-0.6 0.7-0.6h3.8c0.3 0 0.6 0.2 0.6 0.6 0 0.3-0.3 0.6-0.6 0.6zm-12.7 0h-3.8c-0.4 0-0.7-0.3-0.7-0.6 0-0.4 0.3-0.6 0.7-0.6h3.8c0.3 0 0.6 0.2 0.6 0.6 0 0.3-0.3 0.6-0.6 0.6zm-12.7 0h-3.8c-0.4 0-0.7-0.3-0.7-0.6 0-0.4 0.3-0.6 0.7-0.6h3.8c0.3 0 0.6 0.2 0.6 0.6 0 0.3-0.3 0.6-0.6 0.6zm-12.7 0h-3.8c-0.4 0-0.6-0.3-0.6-0.6 0-0.4 0.2-0.6 0.6-0.6h3.8c0.3 0 0.6 0.2 0.6 0.6 0 0.3-0.3 0.6-0.6 0.6zm-12.7 0h-3.8c-0.4 0-0.6-0.3-0.6-0.6 0-0.4 0.2-0.6 0.6-0.6h3.8c0.4 0 0.6 0.2 0.6 0.6 0 0.3-0.2 0.6-0.6 0.6zm-12.7 0h-3.8c-0.3 0-0.6-0.3-0.6-0.6 0-0.4 0.3-0.6 0.6-0.6h3.8c0.4 0 0.6 0.2 0.6 0.6 0 0.3-0.2 0.6-0.6 0.6zm-12.7 0h-3.8c-0.3 0-0.6-0.3-0.6-0.6 0-0.4 0.3-0.6 0.6-0.6h3.8c0.4 0 0.7 0.2 0.7 0.6 0 0.3-0.3 0.6-0.7 0.6zm-12.7 0h-3.8c-0.3 0-0.6-0.3-0.6-0.6 0-0.4 0.3-0.6 0.6-0.6h3.8c0.4 0 0.7 0.2 0.7 0.6 0 0.3-0.3 0.6-0.7 0.6zm-12.7 0h-3.8c-0.3 0-0.6-0.3-0.6-0.6 0-0.4 0.3-0.6 0.6-0.6h3.8c0.4 0 0.7 0.2 0.7 0.6 0 0.3-0.3 0.6-0.7 0.6zm-12.7 0h-3.8c-0.3 0-0.6-0.3-0.6-0.6 0-0.4 0.3-0.6 0.6-0.6h3.8c0.4 0 0.7 0.2 0.7 0.6 0 0.3-0.3 0.6-0.7 0.6zm-12.6 0h-3.9c-0.3 0-0.6-0.3-0.6-0.6 0-0.4 0.3-0.6 0.6-0.6h3.9c0.3 0 0.6 0.2 0.6 0.6 0 0.3-0.3 0.6-0.6 0.6zm-12.7 0h-3.8c-0.4 0-0.7-0.3-0.7-0.6 0-0.4 0.3-0.6 0.7-0.6h3.8c0.3 0 0.6 0.2 0.6 0.6 0 0.3-0.3 0.6-0.6 0.6zm-12.7 0h-3.8c-0.4 0-0.7-0.3-0.7-0.6 0-0.4 0.3-0.6 0.7-0.6h3.8c0.3 0 0.6 0.2 0.6 0.6 0 0.3-0.3 0.6-0.6 0.6zm-12.7 0h-3.8c-0.4 0-0.7-0.3-0.7-0.6 0-0.4 0.3-0.6 0.7-0.6h3.8c0.3 0 0.6 0.2 0.6 0.6 0 0.3-0.3 0.6-0.6 0.6zm-12.7 0h-3.8c-0.4 0-0.7-0.3-0.7-0.6 0-0.4 0.3-0.6 0.7-0.6h3.8c0.3 0 0.6 0.2 0.6 0.6 0 0.3-0.3 0.6-0.6 0.6zm-12.7 0h-3.8c-0.4 0-0.6-0.3-0.6-0.6 0-0.4 0.2-0.6 0.6-0.6h3.8c0.4 0 0.6 0.2 0.6 0.6 0 0.3-0.2 0.6-0.6 0.6zm-12.7 0h-3.8c-0.3 0-0.6-0.3-0.6-0.6 0-0.4 0.3-0.6 0.6-0.6h3.8c0.4 0 0.6 0.2 0.6 0.6 0 0.3-0.2 0.6-0.6 0.6zm-12.7 0h-3.8c-0.3 0-0.6-0.3-0.6-0.6 0-0.4 0.3-0.6 0.6-0.6h3.8c0.4 0 0.7 0.2 0.7 0.6 0 0.3-0.3 0.6-0.7 0.6zm-12.7 0h-3.8c-0.3 0-0.6-0.3-0.6-0.6 0-0.4 0.3-0.6 0.6-0.6h3.8c0.4 0 0.7 0.2 0.7 0.6 0 0.3-0.3 0.6-0.7 0.6zm-12.7 0h-3.8c-0.3 0-0.6-0.3-0.6-0.6 0-0.4 0.3-0.6 0.6-0.6h3.8c0.4 0 0.7 0.2 0.7 0.6 0 0.3-0.3 0.6-0.7 0.6zm-12.7 0h-3.8c-0.3 0-0.6-0.3-0.6-0.6 0-0.4 0.3-0.6 0.6-0.6h3.8c0.4 0 0.7 0.2 0.7 0.6 0 0.3-0.3 0.6-0.7 0.6zm-12.6 0h-3.9c-0.3 0-0.6-0.3-0.6-0.6 0-0.4 0.3-0.6 0.6-0.6h3.9c0.3 0 0.6 0.2 0.6 0.6 0 0.3-0.3 0.6-0.6 0.6zm-12.7 0h-3.8c-0.4 0-0.7-0.3-0.7-0.6 0-0.4 0.3-0.6 0.7-0.6h3.8c0.3 0 0.6 0.2 0.6 0.6 0 0.3-0.3 0.6-0.6 0.6zm-12.7 0h-3.8c-0.4 0-0.7-0.3-0.7-0.6 0-0.4 0.3-0.6 0.7-0.6h3.8c0.3 0 0.6 0.2 0.6 0.6 0 0.3-0.3 0.6-0.6 0.6zm-12.7 0h-3.8c-0.4 0-0.7-0.3-0.7-0.6 0-0.4 0.3-0.6 0.7-0.6h3.8c0.3 0 0.6 0.2 0.6 0.6 0 0.3-0.3 0.6-0.6 0.6zm-12.7 0h-3.8c-0.4 0-0.7-0.3-0.7-0.6 0-0.4 0.3-0.6 0.7-0.6h3.8c0.3 0 0.6 0.2 0.6 0.6 0 0.3-0.3 0.6-0.6 0.6zm-12.7 0h-3.8c-0.4 0-0.6-0.3-0.6-0.6 0-0.4 0.2-0.6 0.6-0.6h3.8c0.3 0 0.6 0.2 0.6 0.6 0 0.3-0.3 0.6-0.6 0.6zm-12.7 0h-3.8c-0.4 0-0.6-0.3-0.6-0.6 0-0.4 0.2-0.6 0.6-0.6h3.8c0.4 0 0.6 0.2 0.6 0.6 0 0.3-0.2 0.6-0.6 0.6zm-12.7 0h-3.8c-0.3 0-0.6-0.3-0.6-0.6 0-0.4 0.3-0.6 0.6-0.6h3.8c0.4 0 0.6 0.2 0.6 0.6 0 0.3-0.2 0.6-0.6 0.6zm-12.7 0h-3.8c-0.3 0-0.6-0.3-0.6-0.6 0-0.4 0.3-0.6 0.6-0.6h3.8c0.4 0 0.7 0.2 0.7 0.6 0 0.3-0.3 0.6-0.7 0.6zm-12.7 0h-3.8c-0.3 0-0.6-0.3-0.6-0.6 0-0.4 0.3-0.6 0.6-0.6h3.8c0.4 0 0.7 0.2 0.7 0.6 0 0.3-0.3 0.6-0.7 0.6zm-12.7 0h-3.8c-0.3 0-0.6-0.3-0.6-0.6 0-0.4 0.3-0.6 0.6-0.6h3.8c0.4 0 0.7 0.2 0.7 0.6 0 0.3-0.3 0.6-0.7 0.6zm-12.7 0h-3.8c-0.3 0-0.6-0.3-0.6-0.6 0-0.4 0.3-0.6 0.6-0.6h3.8c0.4 0 0.7 0.2 0.7 0.6 0 0.3-0.3 0.6-0.7 0.6zm-12.6 0h-3.9c-0.3 0-0.6-0.3-0.6-0.6 0-0.4 0.3-0.6 0.6-0.6h3.9c0.3 0 0.6 0.2 0.6 0.6 0 0.3-0.3 0.6-0.6 0.6zm-12.7 0h-3.8c-0.4 0-0.7-0.3-0.7-0.6 0-0.4 0.3-0.6 0.7-0.6h3.8c0.3 0 0.6 0.2 0.6 0.6 0 0.3-0.3 0.6-0.6 0.6zm-12.7 0h-3.8c-0.4 0-0.7-0.3-0.7-0.6 0-0.4 0.3-0.6 0.7-0.6h3.8c0.3 0 0.6 0.2 0.6 0.6 0 0.3-0.3 0.6-0.6 0.6zm-12.7 0h-3.8c-0.4 0-0.7-0.3-0.7-0.6 0-0.4 0.3-0.6 0.7-0.6h3.8c0.3 0 0.6 0.2 0.6 0.6 0 0.3-0.3 0.6-0.6 0.6z"/>
				<path id="&lt;Path&gt;" class="s20" d="m603.7 2799.1l1.5-16.8c1.8-4 5.5-6.9 9.8-7.6 16.3-2.5 56.7-7.1 76.2 7.4l2.9 19.6z"/>
				<path id="&lt;Path&gt;" class="s21" d="m654.5 2782.9q-5.6 1.4-11.2 0c-4.6-1.1-7.8-5.2-7.8-9.8v-52.7h26.8v52.6c0 4.7-3.2 8.8-7.8 9.9z"/>
				<path id="&lt;Path&gt;" class="s22" d="m863.5 2799.1l1.6-16.8c1.7-4 5.4-6.9 9.8-7.6 16.3-2.5 56.6-7.1 76.1 7.4l2.9 19.6z"/>
				<path id="&lt;Path&gt;" class="s23" d="m914.3 2782.9q-5.6 1.4-11.2 0c-4.6-1.1-7.8-5.2-7.8-9.8v-58.3h26.8v58.2c0 4.7-3.2 8.8-7.8 9.9z"/>
				<path id="&lt;Path&gt;" class="s24" d="m632.8 2733.3l288.5-9.6c6.5-0.2 12.1-4.9 13.2-11.4 1.6-9 3-22.5 0.9-36.6-2.3-15.9-16-27.7-32.2-28.1-53.8-1.3-190.8-1.3-266.3 28.6-8 3.2-14 10-16 18.3-1.9 7.9-3.2 18.5-0.7 29.3 1.4 5.7 6.7 9.7 12.6 9.5z"/>
				<path id="&lt;Path&gt;" class="s4" d="m627.8 2718.3c-0.7 0-1.2-0.5-1.3-1.2 0-0.4-1.1-11.3 1.7-21.7 2.2-7.9 8.5-14.3 16.4-16.6 16.1-4.8 46.8-12.8 71.9-13.5 0.7 0 1.3 0.5 1.3 1.2 0 0.7-0.5 1.3-1.2 1.4-24.8 0.6-55.3 8.6-71.3 13.3-7.1 2.1-12.7 7.8-14.6 14.9-2.7 9.9-1.7 20.7-1.7 20.8 0.1 0.7-0.4 1.3-1.1 1.4q-0.1 0-0.1 0z"/>
				<path id="&lt;Path&gt;" class="s25" d="m469.8 2792.6c93.2-1.2 496.4-5.5 613.5 8.7 10.1 1.2 18.3 8.6 20.5 18.4 6.9 31.3 20.8 104 19.2 176.1-0.2 9.8-7.4 18-17.1 19.9l-267.3 50.5h-95l-284.8-56.6c-10.1-2-17.5-10.5-18-20.7-1.9-36.2-4.7-121.3 5.1-176 2-11.6 12-20.2 23.9-20.3z"/>
				<path id="&lt;Compound Path&gt;" class="s0" d="m836.4 3043.8h-3.8c-0.4 0-0.7-0.2-0.7-0.6 0-0.4 0.3-0.6 0.7-0.6h3.8c0.3 0 0.6 0.2 0.6 0.6 0 0.4-0.3 0.6-0.6 0.6zm-12.7 0h-3.8c-0.4 0-0.7-0.2-0.7-0.6 0-0.4 0.3-0.6 0.7-0.6h3.8c0.3 0 0.6 0.2 0.6 0.6 0 0.4-0.3 0.6-0.6 0.6zm-12.7 0h-3.8c-0.4 0-0.7-0.2-0.7-0.6 0-0.4 0.3-0.6 0.7-0.6h3.8c0.3 0 0.6 0.2 0.6 0.6 0 0.4-0.3 0.6-0.6 0.6zm-12.7 0h-3.8c-0.4 0-0.6-0.2-0.6-0.6 0-0.4 0.2-0.6 0.6-0.6h3.8c0.3 0 0.6 0.2 0.6 0.6 0 0.4-0.3 0.6-0.6 0.6zm-12.7 0h-3.8c-0.4 0-0.6-0.2-0.6-0.6 0-0.4 0.2-0.6 0.6-0.6h3.8c0.4 0 0.6 0.2 0.6 0.6 0 0.4-0.2 0.6-0.6 0.6zm-12.7 0h-3.8c-0.3 0-0.6-0.2-0.6-0.6 0-0.4 0.3-0.6 0.6-0.6h3.8c0.4 0 0.7 0.2 0.7 0.6 0 0.4-0.3 0.6-0.7 0.6zm-12.7 0h-3.8c-0.3 0-0.6-0.2-0.6-0.6 0-0.4 0.3-0.6 0.6-0.6h3.8c0.4 0 0.7 0.2 0.7 0.6 0 0.4-0.3 0.6-0.7 0.6zm-12.7 0h-1.6l-3.9-0.7c-0.3-0.1-0.6-0.4-0.5-0.8 0.1-0.3 0.4-0.5 0.8-0.5l3.7 0.8h1.5c0.4 0 0.7 0.2 0.7 0.6 0 0.4-0.3 0.6-0.7 0.6zm97.6-1.6c-0.3 0-0.6-0.2-0.6-0.5-0.1-0.4 0.1-0.7 0.5-0.8l3.7-0.7c0.4 0 0.7 0.2 0.8 0.5 0 0.4-0.2 0.7-0.5 0.8l-3.8 0.7q0 0-0.1 0zm-111.7-0.8q0 0-0.1-0.1l-3.7-0.7c-0.4-0.1-0.6-0.4-0.5-0.7 0-0.4 0.4-0.6 0.7-0.5l3.8 0.7c0.3 0.1 0.5 0.4 0.4 0.7 0 0.4-0.3 0.6-0.6 0.6zm124.2-1.6c-0.3 0-0.6-0.2-0.7-0.5 0-0.3 0.2-0.7 0.6-0.7l3.7-0.7c0.3-0.1 0.7 0.1 0.7 0.5 0.1 0.3-0.1 0.6-0.5 0.7l-3.7 0.7q-0.1 0-0.1 0zm-136.6-0.9q-0.1 0-0.1 0l-3.8-0.8c-0.3 0-0.5-0.4-0.5-0.7 0.1-0.4 0.4-0.6 0.8-0.5l3.7 0.7c0.3 0.1 0.6 0.4 0.5 0.8-0.1 0.3-0.3 0.5-0.6 0.5zm149-1.4c-0.3 0-0.5-0.2-0.6-0.5 0-0.4 0.2-0.7 0.5-0.8l3.8-0.7c0.3-0.1 0.6 0.2 0.7 0.5 0.1 0.4-0.2 0.7-0.5 0.8l-3.7 0.7q-0.1 0-0.2 0zm-161.5-1.1q0 0-0.1 0l-3.7-0.7c-0.4-0.1-0.6-0.4-0.5-0.8 0-0.3 0.4-0.6 0.7-0.5l3.8 0.8c0.3 0 0.5 0.4 0.5 0.7-0.1 0.3-0.4 0.5-0.7 0.5zm174-1.3c-0.3 0-0.6-0.2-0.6-0.5-0.1-0.3 0.2-0.7 0.5-0.7l3.7-0.8c0.4 0 0.7 0.2 0.8 0.6 0 0.3-0.2 0.6-0.5 0.7l-3.8 0.7q0 0-0.1 0zm-186.4-1.2q-0.1 0-0.1 0l-3.8-0.7c-0.3-0.1-0.5-0.4-0.5-0.8 0.1-0.3 0.4-0.5 0.8-0.5l3.7 0.8c0.4 0 0.6 0.4 0.5 0.7-0.1 0.3-0.3 0.5-0.6 0.5zm198.9-1.1c-0.3 0-0.6-0.3-0.6-0.6-0.1-0.3 0.1-0.6 0.5-0.7l3.7-0.7c0.4-0.1 0.7 0.1 0.7 0.5 0.1 0.3-0.1 0.7-0.5 0.7l-3.7 0.7q-0.1 0.1-0.1 0.1zm-211.4-1.3q0 0-0.1 0l-3.7-0.8c-0.4-0.1-0.6-0.4-0.5-0.7 0-0.4 0.4-0.6 0.7-0.5l3.8 0.7c0.3 0.1 0.5 0.4 0.5 0.8-0.1 0.3-0.4 0.5-0.7 0.5zm223.9-1.1c-0.3 0-0.6-0.2-0.7-0.5 0-0.4 0.2-0.7 0.5-0.8l3.8-0.7c0.3 0 0.7 0.2 0.7 0.5 0.1 0.4-0.1 0.7-0.5 0.8l-3.7 0.7q-0.1 0-0.1 0zm-236.3-1.4q-0.1 0-0.1 0l-3.8-0.8c-0.3 0-0.5-0.4-0.5-0.7 0.1-0.4 0.4-0.6 0.8-0.5l3.7 0.7c0.4 0.1 0.6 0.4 0.5 0.8 0 0.3-0.3 0.5-0.6 0.5zm248.7-1c-0.3 0-0.5-0.2-0.6-0.5-0.1-0.3 0.2-0.7 0.5-0.7l3.7-0.7c0.4-0.1 0.7 0.1 0.8 0.5 0.1 0.3-0.2 0.7-0.5 0.7l-3.8 0.7q0 0-0.1 0zm-261.2-1.5q0 0-0.1 0l-3.7-0.7c-0.4-0.1-0.6-0.4-0.5-0.8 0.1-0.3 0.4-0.6 0.7-0.5l3.8 0.8c0.3 0 0.5 0.4 0.5 0.7-0.1 0.3-0.4 0.5-0.7 0.5zm273.7-0.8c-0.3 0-0.6-0.2-0.6-0.5-0.1-0.4 0.1-0.7 0.5-0.8l3.7-0.7c0.4-0.1 0.7 0.2 0.8 0.5 0 0.4-0.2 0.7-0.5 0.8l-3.8 0.7q0 0-0.1 0zm-286.1-1.7q-0.1 0-0.1 0l-3.8-0.7c-0.3-0.1-0.5-0.4-0.5-0.8 0.1-0.3 0.4-0.5 0.8-0.5l3.7 0.8c0.4 0.1 0.6 0.4 0.5 0.7 0 0.3-0.3 0.5-0.6 0.5zm298.6-0.7c-0.3 0-0.6-0.2-0.7-0.5 0-0.3 0.2-0.7 0.5-0.7l3.8-0.7c0.3-0.1 0.7 0.1 0.7 0.5 0.1 0.3-0.1 0.6-0.5 0.7l-3.7 0.7q-0.1 0-0.1 0zm-311.1-1.7q0 0-0.1 0l-3.7-0.8c-0.4-0.1-0.6-0.4-0.5-0.7 0.1-0.4 0.4-0.6 0.7-0.5l3.8 0.7c0.3 0.1 0.5 0.4 0.5 0.8-0.1 0.3-0.4 0.5-0.7 0.5zm323.5-0.6c-0.3 0-0.5-0.3-0.6-0.6-0.1-0.3 0.2-0.6 0.5-0.7l3.8-0.7c0.3-0.1 0.6 0.2 0.7 0.5 0.1 0.3-0.2 0.7-0.5 0.7l-3.7 0.7q-0.1 0.1-0.2 0.1zm-335.9-1.9q-0.1 0-0.1 0l-3.8-0.8c-0.3 0-0.5-0.4-0.5-0.7 0.1-0.4 0.4-0.6 0.8-0.5l3.7 0.7c0.4 0.1 0.6 0.4 0.5 0.8 0 0.3-0.3 0.5-0.6 0.5zm348.4-0.5c-0.3 0-0.6-0.2-0.6-0.5-0.1-0.4 0.1-0.7 0.5-0.8l3.7-0.7c0.4 0 0.7 0.2 0.8 0.5 0 0.4-0.2 0.7-0.5 0.8l-3.8 0.7q0 0-0.1 0zm-360.9-2q0 0-0.1 0l-3.7-0.7c-0.4-0.1-0.6-0.4-0.5-0.8 0.1-0.3 0.4-0.6 0.7-0.5l3.8 0.8c0.3 0 0.5 0.4 0.5 0.7-0.1 0.3-0.4 0.5-0.7 0.5zm373.4-0.4c-0.3 0-0.6-0.2-0.6-0.5-0.1-0.3 0.1-0.7 0.5-0.7l3.7-0.7c0.3-0.1 0.7 0.1 0.7 0.5 0.1 0.3-0.1 0.7-0.5 0.7l-3.7 0.7q-0.1 0-0.1 0zm-385.8-2.1q-0.1 0-0.1 0l-3.8-0.7c-0.3-0.1-0.5-0.4-0.5-0.8 0.1-0.3 0.4-0.5 0.8-0.5l3.7 0.8c0.4 0.1 0.6 0.4 0.5 0.7 0 0.3-0.3 0.5-0.6 0.5zm398.2-0.2c-0.3 0-0.5-0.2-0.6-0.5 0-0.4 0.2-0.7 0.5-0.8l3.8-0.7c0.3 0 0.6 0.2 0.7 0.5 0.1 0.4-0.2 0.7-0.5 0.8l-3.7 0.7q-0.1 0-0.2 0zm-410.6-2.2q-0.1 0-0.2 0l-3.7-0.8c-0.3-0.1-0.6-0.4-0.5-0.7 0.1-0.4 0.4-0.6 0.7-0.5l3.8 0.7c0.3 0.1 0.5 0.4 0.5 0.8-0.1 0.3-0.3 0.5-0.6 0.5zm423.1-0.2c-0.3 0-0.6-0.2-0.6-0.5-0.1-0.3 0.2-0.7 0.5-0.7l3.7-0.7c0.4-0.1 0.7 0.1 0.8 0.5 0 0.3-0.2 0.6-0.5 0.7l-3.8 0.7q0 0-0.1 0zm-435.6-2.3q-0.1 0-0.1 0l-3.8-0.8c-0.3 0-0.5-0.4-0.5-0.7 0.1-0.3 0.4-0.6 0.8-0.5l3.7 0.7c0.4 0.1 0.6 0.4 0.5 0.8 0 0.3-0.3 0.5-0.6 0.5zm448.1 0c-0.3 0-0.6-0.3-0.6-0.6-0.1-0.3 0.1-0.6 0.5-0.7l3.7-0.7c0.4-0.1 0.7 0.2 0.7 0.5 0.1 0.3-0.1 0.7-0.5 0.7l-3.7 0.8q-0.1 0-0.1 0zm12.5-2.4c-0.3 0-0.6-0.2-0.7-0.5 0-0.4 0.2-0.7 0.5-0.8l3.8-0.7c0.3 0 0.7 0.2 0.7 0.5 0.1 0.4-0.1 0.7-0.5 0.8l-3.7 0.7q-0.1 0-0.1 0zm-473-0.1q-0.1 0-0.2 0l-3.7-0.7c-0.3-0.1-0.6-0.4-0.5-0.8 0.1-0.3 0.4-0.6 0.7-0.5l3.8 0.8c0.3 0 0.5 0.4 0.5 0.7-0.1 0.3-0.3 0.5-0.6 0.5zm485.4-2.3c-0.3 0-0.5-0.2-0.6-0.5-0.1-0.3 0.2-0.6 0.5-0.7l3.7-0.7c0.4-0.1 0.7 0.1 0.8 0.5 0.1 0.3-0.2 0.7-0.5 0.7l-3.8 0.7q0 0-0.1 0zm-497.9-0.2q-0.1 0-0.1 0l-3.7-0.7c-0.4-0.1-0.6-0.4-0.5-0.8 0-0.3 0.4-0.5 0.7-0.5l3.7 0.8c0.4 0.1 0.6 0.4 0.5 0.7 0 0.3-0.3 0.5-0.6 0.5zm510.4-2.1c-0.3 0-0.6-0.2-0.6-0.5-0.1-0.4 0.1-0.7 0.5-0.8l3.7-0.7c0.4 0 0.7 0.2 0.8 0.5 0 0.4-0.2 0.7-0.5 0.8l-3.8 0.7q0 0-0.1 0zm-522.8-0.3q-0.1 0-0.2 0l-3.7-0.8c-0.3-0.1-0.6-0.4-0.5-0.7 0.1-0.4 0.4-0.6 0.8-0.5l3.7 0.7c0.3 0.1 0.6 0.4 0.5 0.8-0.1 0.3-0.3 0.5-0.6 0.5zm535.3-2.1c-0.3 0-0.6-0.2-0.7-0.5 0-0.3 0.2-0.7 0.5-0.7l3.8-0.7c0.3-0.1 0.7 0.1 0.7 0.5 0.1 0.3-0.1 0.6-0.5 0.7l-3.7 0.7q-0.1 0-0.1 0zm-547.8-0.4q0 0-0.1 0l-3.7-0.8c-0.4 0-0.6-0.4-0.5-0.7 0-0.3 0.4-0.6 0.7-0.5l3.7 0.7c0.4 0.1 0.6 0.4 0.5 0.8 0 0.3-0.3 0.5-0.6 0.5zm560.2-1.9c-0.3 0-0.5-0.2-0.6-0.6-0.1-0.3 0.2-0.6 0.5-0.7l3.8-0.7c0.3-0.1 0.6 0.2 0.7 0.5 0.1 0.3-0.2 0.7-0.5 0.7l-3.7 0.8q-0.1 0-0.2 0zm-572.6-0.6q-0.1 0-0.2 0l-3.7-0.7c-0.3-0.1-0.6-0.4-0.5-0.8 0.1-0.3 0.4-0.5 0.8-0.5l3.7 0.8c0.3 0 0.6 0.4 0.5 0.7-0.1 0.3-0.3 0.5-0.6 0.5zm585.1-1.8c-0.3 0-0.6-0.2-0.6-0.5-0.1-0.4 0.1-0.7 0.5-0.8l3.7-0.7c0.4 0 0.7 0.2 0.8 0.5 0 0.4-0.2 0.7-0.5 0.8l-3.8 0.7q0 0-0.1 0zm-597.6-0.7q0 0-0.1 0l-3.7-0.7c-0.4-0.1-0.6-0.4-0.5-0.8 0-0.3 0.4-0.5 0.7-0.5l3.7 0.8c0.4 0.1 0.6 0.4 0.5 0.7 0 0.3-0.3 0.5-0.6 0.5zm-12.4-2.4q-0.1 0-0.2 0l-3.7-0.8c-0.3 0-0.6-0.4-0.5-0.7 0.1-0.4 0.4-0.6 0.8-0.5l3.7 0.7c0.3 0.1 0.6 0.4 0.5 0.8-0.1 0.3-0.3 0.5-0.6 0.5zm-12.5-2.5q0 0-0.1 0l-3.7-0.8c-0.4 0-0.6-0.4-0.5-0.7 0-0.3 0.4-0.6 0.7-0.5l3.7 0.7c0.4 0.1 0.6 0.4 0.5 0.8 0 0.3-0.3 0.5-0.6 0.5zm628.1-2.5c-0.4 0-0.6-0.3-0.6-0.7v-2.3-1.5c0-0.3 0.2-0.6 0.6-0.6 0.3 0 0.6 0.3 0.6 0.6v1.5 2.3c0 0.4-0.3 0.7-0.6 0.7zm-636.5-3.4c-0.4 0-0.7-0.3-0.7-0.6q-0.1-1.9-0.1-3.8c-0.1-0.4 0.2-0.7 0.6-0.7 0.3 0 0.6 0.3 0.6 0.6q0.1 2 0.2 3.8c0 0.4-0.3 0.7-0.6 0.7q0 0 0 0zm636.4-9.3c-0.4 0-0.6-0.3-0.6-0.6q-0.1-1.9-0.1-3.8c0-0.4 0.2-0.7 0.6-0.7 0.4 0 0.6 0.3 0.6 0.6q0.1 1.9 0.1 3.8c0 0.4-0.2 0.7-0.6 0.7zm-637-3.4c-0.3 0-0.6-0.3-0.6-0.6l-0.2-3.8c0-0.4 0.3-0.7 0.7-0.7 0.3 0 0.6 0.3 0.6 0.6l0.2 3.8c0 0.4-0.3 0.7-0.6 0.7q-0.1 0-0.1 0zm636.6-9.3c-0.3 0-0.6-0.3-0.6-0.6q-0.1-1.9-0.2-3.8c0-0.3 0.3-0.6 0.6-0.7 0.4 0 0.7 0.3 0.7 0.6q0.1 1.9 0.2 3.8c0 0.4-0.3 0.7-0.7 0.7q0 0 0 0zm-637-3.4c-0.4 0-0.6-0.3-0.6-0.6l-0.2-3.8c0-0.4 0.3-0.6 0.7-0.7 0.3 0 0.6 0.3 0.6 0.7l0.1 3.8c0 0.3-0.2 0.6-0.6 0.6zm636.4-9.3c-0.3 0-0.6-0.2-0.6-0.6q-0.2-1.9-0.3-3.8c0-0.3 0.3-0.6 0.6-0.6 0.4 0 0.7 0.2 0.7 0.6q0.1 1.9 0.2 3.8c0 0.3-0.2 0.6-0.6 0.6q0 0 0 0zm-636.7-3.4c-0.4 0-0.6-0.2-0.7-0.6v-3.8c0-0.4 0.2-0.6 0.6-0.6 0.3-0.1 0.6 0.2 0.6 0.6l0.1 3.8c0 0.3-0.3 0.6-0.6 0.6zm635.8-9.2c-0.3 0-0.6-0.3-0.6-0.6q-0.2-1.9-0.3-3.8c-0.1-0.3 0.2-0.7 0.5-0.7 0.4 0 0.7 0.2 0.7 0.6q0.2 1.9 0.3 3.8c0.1 0.3-0.2 0.6-0.5 0.7q-0.1 0-0.1 0zm-636-3.5c-0.4 0-0.6-0.2-0.6-0.6l-0.1-3.8c0-0.4 0.3-0.6 0.6-0.6 0.4 0 0.7 0.2 0.7 0.6v3.8c0 0.3-0.3 0.6-0.6 0.6zm634.9-9.2c-0.3 0-0.6-0.2-0.6-0.5q-0.2-1.9-0.4-3.8c-0.1-0.4 0.2-0.7 0.5-0.7 0.4-0.1 0.7 0.2 0.7 0.5q0.2 1.9 0.4 3.8c0 0.4-0.2 0.7-0.6 0.7q0 0 0 0zm-635-3.5c-0.3 0-0.6-0.2-0.6-0.6v-2.2-1.6c0-0.3 0.3-0.6 0.6-0.6 0.4 0 0.6 0.2 0.6 0.6v1.6 2.2c0 0.4-0.2 0.6-0.6 0.6zm633.6-9.1c-0.3 0-0.5-0.2-0.6-0.6q-0.2-1.9-0.4-3.7c-0.1-0.4 0.2-0.7 0.5-0.7 0.4-0.1 0.7 0.2 0.7 0.5q0.3 1.9 0.5 3.8c0 0.3-0.2 0.7-0.6 0.7q0 0-0.1 0zm-633.5-3.5h-0.1c-0.3 0-0.6-0.3-0.6-0.7q0-1.9 0.1-3.8c0-0.3 0.2-0.6 0.6-0.6 0.4 0 0.6 0.3 0.6 0.6q0 1.9 0 3.8c0 0.4-0.3 0.7-0.6 0.7zm632-9.1c-0.3 0-0.6-0.2-0.6-0.6q-0.3-1.9-0.5-3.7c-0.1-0.4 0.2-0.7 0.5-0.7 0.4-0.1 0.7 0.2 0.7 0.5q0.3 1.9 0.5 3.8c0.1 0.3-0.2 0.7-0.5 0.7q-0.1 0-0.1 0zm-631.9-3.6q0 0 0 0c-0.3 0-0.6-0.3-0.6-0.7q0.1-1.9 0.1-3.8c0-0.3 0.3-0.6 0.7-0.6 0.3 0 0.6 0.3 0.6 0.6q-0.1 1.9-0.1 3.8c0 0.4-0.3 0.7-0.7 0.7zm630.2-9c-0.4 0-0.6-0.2-0.7-0.5q-0.2-1.9-0.5-3.8c-0.1-0.3 0.2-0.7 0.5-0.7 0.4-0.1 0.7 0.2 0.7 0.5q0.3 1.9 0.6 3.8c0 0.3-0.2 0.7-0.5 0.7q-0.1 0-0.1 0zm-629.8-3.7c-0.4 0-0.6-0.3-0.6-0.7q0-1.9 0.1-3.8c0-0.3 0.4-0.6 0.7-0.6 0.3 0 0.6 0.3 0.6 0.7q-0.1 1.9-0.2 3.8c0 0.3-0.2 0.6-0.6 0.6zm627.8-8.8c-0.3 0-0.5-0.2-0.6-0.6q-0.3-1.9-0.6-3.7c-0.1-0.4 0.2-0.7 0.5-0.7 0.4-0.1 0.7 0.1 0.8 0.5q0.3 1.8 0.6 3.7c0 0.4-0.2 0.7-0.6 0.8q0 0-0.1 0zm-627.2-3.9q0 0 0 0c-0.4 0-0.7-0.3-0.7-0.7q0.1-1.9 0.3-3.8c0-0.3 0.3-0.6 0.6-0.6 0.4 0 0.6 0.3 0.6 0.7q-0.1 1.9-0.2 3.8c0 0.3-0.3 0.6-0.6 0.6zm625.1-8.6c-0.3 0-0.5-0.3-0.6-0.6q-0.3-1.9-0.7-3.7c0-0.4 0.2-0.7 0.6-0.8 0.3 0 0.6 0.2 0.7 0.6q0.3 1.8 0.7 3.7c0 0.4-0.2 0.7-0.6 0.7q0 0.1-0.1 0.1zm-624.3-4.1q0 0-0.1 0c-0.3 0-0.6-0.3-0.6-0.7q0.2-1.9 0.3-3.8c0.1-0.3 0.4-0.6 0.7-0.6 0.4 0.1 0.6 0.4 0.6 0.7q-0.2 1.9-0.3 3.8c0 0.4-0.3 0.6-0.6 0.6zm622-8.4c-0.3 0-0.5-0.3-0.6-0.6q-0.3-1.9-0.7-3.7c-0.1-0.3 0.2-0.7 0.5-0.7 0.3-0.1 0.7 0.1 0.7 0.5q0.4 1.8 0.8 3.7c0 0.4-0.2 0.7-0.5 0.7q-0.1 0.1-0.2 0.1zm-621-4.2q0 0 0 0c-0.4-0.1-0.6-0.4-0.6-0.7q0.2-1.9 0.4-3.8c0-0.4 0.3-0.6 0.7-0.6 0.4 0 0.6 0.4 0.6 0.7q-0.2 1.9-0.4 3.8c-0.1 0.3-0.3 0.6-0.7 0.6zm618.6-8.3c-0.3 0-0.6-0.2-0.6-0.5q-0.4-1.9-0.8-3.7c-0.1-0.4 0.1-0.7 0.5-0.8 0.3-0.1 0.6 0.2 0.7 0.5q0.4 1.8 0.8 3.7c0.1 0.4-0.1 0.7-0.5 0.8q-0.1 0-0.1 0zm-617.1-4.3c0 0-0.1 0-0.1-0.1-0.4 0-0.6-0.3-0.6-0.7q0.3-1.9 0.6-3.7c0-0.4 0.3-0.6 0.7-0.6 0.3 0.1 0.6 0.4 0.5 0.7q-0.2 1.9-0.5 3.8c0 0.3-0.3 0.6-0.6 0.6zm613-6.7c0 0 0-0.1-0.1-0.1q-1.8-0.2-3.7-0.4c-0.4 0-0.6-0.3-0.6-0.7 0-0.3 0.3-0.6 0.7-0.5q1.9 0.2 3.8 0.4c0.3 0 0.6 0.3 0.5 0.7 0 0.3-0.3 0.6-0.6 0.6zm-12.6-1.4q0 0-0.1 0-1.8-0.1-3.8-0.3c-0.3 0-0.6-0.3-0.5-0.7 0-0.3 0.3-0.6 0.6-0.6q2 0.2 3.8 0.4c0.4 0 0.6 0.3 0.6 0.7 0 0.3-0.3 0.5-0.6 0.5zm-12.7-1q0 0 0 0-1.9-0.2-3.8-0.3c-0.4 0-0.6-0.3-0.6-0.7 0-0.3 0.3-0.6 0.7-0.6q1.9 0.2 3.8 0.3c0.3 0 0.6 0.3 0.6 0.7-0.1 0.3-0.3 0.6-0.7 0.6zm-12.6-0.9q0 0-0.1 0l-3.8-0.3c-0.3 0-0.6-0.3-0.6-0.6 0.1-0.4 0.3-0.6 0.7-0.6l3.8 0.2c0.4 0 0.6 0.3 0.6 0.7 0 0.3-0.3 0.6-0.6 0.6zm-12.7-0.8q0 0 0 0l-3.8-0.2c-0.4 0-0.6-0.3-0.6-0.7 0-0.3 0.3-0.6 0.6-0.6l3.8 0.2c0.4 0.1 0.7 0.4 0.6 0.7 0 0.3-0.3 0.6-0.6 0.6zm-12.7-0.7q0 0 0 0l-3.8-0.2c-0.4 0-0.6-0.3-0.6-0.6 0-0.4 0.3-0.6 0.7-0.6l3.8 0.2c0.3 0 0.6 0.3 0.6 0.6-0.1 0.4-0.3 0.6-0.7 0.6zm-12.6-0.6h-0.1l-3.8-0.1c-0.3 0-0.6-0.3-0.6-0.7 0-0.3 0.3-0.6 0.7-0.6l3.8 0.2c0.3 0 0.6 0.3 0.6 0.6 0 0.4-0.3 0.6-0.6 0.6zm-12.7-0.5q0 0-0.1 0l-3.8-0.1c-0.3-0.1-0.6-0.3-0.6-0.7 0-0.3 0.4-0.6 0.7-0.6l3.8 0.1c0.3 0.1 0.6 0.3 0.6 0.7 0 0.3-0.3 0.6-0.6 0.6zm-522.5 0q-0.1 0-0.1 0c-0.4-0.1-0.6-0.4-0.6-0.7l0.3-1.2c0.2-1.1 1.1-1.9 2.2-1.9h0.3c0.4-0.1 0.6 0.2 0.6 0.6 0 0.3-0.2 0.6-0.6 0.6h-0.3c-0.5 0.1-0.9 0.4-1 0.9l-0.2 1.2c-0.1 0.3-0.3 0.5-0.6 0.5zm509.8-0.5l-3.8-0.1c-0.4 0-0.7-0.3-0.6-0.7 0-0.3 0.3-0.6 0.6-0.6l3.8 0.2c0.4 0 0.6 0.3 0.6 0.6 0 0.4-0.3 0.6-0.6 0.6zm-12.7-0.4q0 0 0 0l-3.8-0.1c-0.4 0-0.6-0.3-0.6-0.7 0-0.3 0.3-0.6 0.6-0.6l3.8 0.1c0.4 0.1 0.7 0.3 0.6 0.7 0 0.3-0.3 0.6-0.6 0.6zm-12.7-0.4q0 0 0 0l-3.8-0.1c-0.4 0-0.6-0.3-0.6-0.6 0-0.4 0.3-0.7 0.6-0.7l3.8 0.2c0.4 0 0.7 0.3 0.7 0.6-0.1 0.4-0.3 0.6-0.7 0.6zm-12.7-0.3q0 0 0 0l-3.8-0.1c-0.3 0-0.6-0.3-0.6-0.7 0-0.3 0.2-0.6 0.6-0.6l3.8 0.1c0.4 0 0.7 0.3 0.7 0.7 0 0.3-0.3 0.6-0.7 0.6zm-12.7-0.3l-3.8-0.1c-0.3 0-0.6-0.3-0.6-0.7 0-0.3 0.2-0.6 0.7-0.6l3.8 0.1c0.3 0 0.6 0.3 0.6 0.6 0 0.4-0.3 0.7-0.7 0.7zm-12.6-0.3q-0.1 0-0.1 0l-3.8-0.1c-0.3 0-0.6-0.3-0.6-0.6 0-0.4 0.3-0.7 0.7-0.7l3.8 0.1c0.3 0 0.6 0.3 0.6 0.7 0 0.3-0.3 0.6-0.6 0.6zm-12.7-0.3h-3.9c-0.3-0.1-0.6-0.3-0.6-0.7 0-0.3 0.3-0.7 0.7-0.6l3.8 0.1c0.3 0 0.6 0.3 0.6 0.6 0 0.3-0.3 0.6-0.6 0.6zm-422.7-0.2c-0.4 0-0.6-0.2-0.7-0.6 0-0.3 0.3-0.6 0.7-0.6l3.8-0.1c0.3 0 0.6 0.3 0.6 0.6 0 0.4-0.3 0.7-0.6 0.7h-3.8zm410 0l-3.8-0.1c-0.4 0-0.7-0.3-0.7-0.6 0-0.4 0.3-0.6 0.7-0.6h3.8c0.3 0 0.6 0.3 0.6 0.7 0 0.3-0.3 0.6-0.6 0.6zm-397.3-0.1c-0.4 0-0.6-0.3-0.6-0.6-0.1-0.4 0.2-0.7 0.6-0.7h3.8c0.3-0.1 0.6 0.2 0.6 0.6 0 0.3-0.2 0.6-0.6 0.6l-3.8 0.1zm384.6-0.1l-3.8-0.1c-0.4 0-0.6-0.3-0.6-0.6 0-0.4 0.2-0.7 0.6-0.6h3.8c0.4 0 0.6 0.3 0.6 0.7 0 0.3-0.3 0.6-0.6 0.6zm-371.9-0.1c-0.4 0-0.6-0.2-0.6-0.6 0-0.3 0.2-0.6 0.6-0.6l3.8-0.1c0.4 0 0.6 0.3 0.6 0.7 0 0.3-0.2 0.6-0.6 0.6h-3.8zm12.7-0.1c-0.4 0-0.6-0.3-0.6-0.6 0-0.4 0.2-0.7 0.6-0.7h3.8c0.4 0 0.6 0.3 0.6 0.6 0 0.4-0.2 0.7-0.6 0.7h-3.8zm346.5 0l-3.8-0.1c-0.3 0-0.6-0.2-0.6-0.6 0-0.3 0.3-0.6 0.6-0.6h3.8c0.4 0 0.7 0.3 0.7 0.7 0 0.3-0.3 0.6-0.7 0.6zm-333.8-0.1c-0.3 0-0.6-0.3-0.6-0.6 0-0.4 0.2-0.7 0.6-0.7h3.8c0.4 0 0.6 0.3 0.6 0.6 0 0.4-0.2 0.6-0.6 0.6l-3.8 0.1zm321.1-0.1h-3.8c-0.3 0-0.6-0.3-0.6-0.7 0-0.3 0.3-0.6 0.6-0.6l3.8 0.1c0.4 0 0.7 0.3 0.7 0.6 0 0.4-0.3 0.6-0.7 0.6zm-308.4 0c-0.3 0-0.6-0.3-0.6-0.7 0-0.3 0.2-0.6 0.6-0.6h3.8c0.4 0 0.6 0.2 0.6 0.6 0 0.3-0.2 0.6-0.6 0.6l-3.8 0.1zm295.8-0.1h-0.1l-3.8-0.1c-0.3 0-0.6-0.2-0.6-0.6 0-0.3 0.3-0.6 0.7-0.6h3.8c0.3 0 0.6 0.3 0.6 0.7 0 0.3-0.3 0.6-0.6 0.6zm-283.1 0c-0.3 0-0.6-0.3-0.6-0.7 0-0.3 0.2-0.6 0.6-0.6h3.8c0.4 0 0.6 0.2 0.6 0.6 0 0.3-0.2 0.6-0.6 0.6l-3.8 0.1zm12.7-0.1c-0.3 0-0.6-0.3-0.6-0.7 0-0.3 0.2-0.6 0.6-0.6h3.8c0.4 0 0.6 0.2 0.6 0.6 0 0.3-0.2 0.6-0.6 0.6l-3.8 0.1q0 0 0 0zm257.7 0l-3.8-0.1c-0.4 0-0.7-0.3-0.7-0.6 0-0.4 0.3-0.7 0.7-0.7l3.8 0.1c0.3 0 0.6 0.3 0.6 0.6 0 0.4-0.3 0.7-0.6 0.7zm-245-0.1c-0.3 0-0.6-0.3-0.6-0.7 0-0.3 0.2-0.6 0.6-0.6h3.8c0.3-0.1 0.6 0.3 0.6 0.6 0 0.4-0.2 0.6-0.6 0.6l-3.8 0.1zm232.3-0.1h-3.8c-0.4 0-0.7-0.3-0.7-0.6 0-0.4 0.3-0.7 0.7-0.7l3.8 0.1c0.3 0 0.6 0.3 0.6 0.6 0 0.4-0.3 0.6-0.6 0.6zm-219.6 0c-0.4 0-0.6-0.3-0.6-0.6 0-0.4 0.2-0.7 0.6-0.7h3.8c0.4 0 0.6 0.3 0.6 0.6 0 0.4-0.2 0.7-0.6 0.7h-3.8zm206.9-0.1h-3.8c-0.4 0-0.7-0.3-0.6-0.6 0-0.4 0.3-0.7 0.6-0.7l3.8 0.1c0.3 0 0.6 0.3 0.6 0.6 0 0.4-0.3 0.6-0.6 0.6zm-194.2 0c-0.4 0-0.6-0.3-0.6-0.6 0-0.4 0.2-0.7 0.6-0.7h3.8c0.4 0 0.6 0.3 0.6 0.7 0 0.3-0.2 0.6-0.6 0.6h-3.8zm181.5 0l-3.8-0.1c-0.4 0-0.6-0.3-0.6-0.6 0-0.4 0.3-0.6 0.6-0.6h3.8c0.4 0 0.6 0.3 0.6 0.6 0 0.4-0.2 0.7-0.6 0.7zm-168.8-0.1c-0.4 0-0.6-0.2-0.6-0.6 0-0.3 0.2-0.6 0.6-0.6h3.8c0.4 0 0.6 0.2 0.6 0.6 0 0.3-0.2 0.6-0.6 0.6h-3.8zm156.1 0h-3.8c-0.3 0-0.6-0.3-0.6-0.7 0-0.3 0.3-0.6 0.6-0.6h3.8c0.4 0 0.7 0.3 0.7 0.7-0.1 0.3-0.3 0.6-0.7 0.6zm-143.4 0c-0.4 0-0.6-0.3-0.6-0.6 0-0.4 0.2-0.7 0.6-0.7h3.8c0.4 0 0.6 0.3 0.6 0.6 0 0.4-0.2 0.7-0.6 0.7h-3.8zm12.7-0.1c-0.4 0-0.6-0.2-0.6-0.6 0-0.3 0.2-0.6 0.6-0.6h3.8c0.4 0 0.6 0.2 0.6 0.6 0 0.3-0.2 0.6-0.6 0.6h-3.8zm118 0h-3.8c-0.3 0-0.6-0.3-0.6-0.6 0-0.4 0.3-0.7 0.6-0.7l3.8 0.1c0.4 0 0.7 0.2 0.7 0.6 0 0.3-0.3 0.6-0.7 0.6zm-105.3 0c-0.4 0-0.6-0.3-0.6-0.6 0-0.4 0.2-0.7 0.6-0.7h3.8c0.3 0 0.6 0.3 0.6 0.6 0 0.4-0.2 0.7-0.6 0.7h-3.8zm92.6 0h-3.8c-0.3 0-0.6-0.3-0.6-0.7 0-0.3 0.3-0.6 0.6-0.6h3.8c0.4 0 0.7 0.3 0.7 0.7 0 0.3-0.3 0.6-0.7 0.6zm-79.9 0c-0.4 0-0.6-0.3-0.6-0.7 0-0.3 0.2-0.6 0.6-0.6h3.8c0.3 0 0.6 0.3 0.6 0.6 0 0.4-0.3 0.7-0.6 0.7h-3.8zm67.3 0h-0.1l-3.8-0.1c-0.3 0-0.6-0.2-0.6-0.6 0-0.3 0.3-0.6 0.6-0.6h3.9c0.3 0 0.6 0.3 0.6 0.6 0 0.4-0.3 0.7-0.6 0.7zm-54.6-0.1c-0.4 0-0.7-0.2-0.7-0.6 0-0.3 0.3-0.6 0.7-0.6h3.8c0.3 0 0.6 0.2 0.6 0.6 0 0.3-0.3 0.6-0.6 0.6h-3.8zm41.9 0h-3.8c-0.4 0-0.7-0.3-0.7-0.6 0-0.4 0.3-0.6 0.7-0.6h3.8c0.3 0 0.6 0.2 0.6 0.6 0 0.3-0.3 0.6-0.6 0.6zm-29.2 0c-0.4 0-0.7-0.3-0.7-0.6 0-0.4 0.3-0.6 0.7-0.6h3.8c0.3 0 0.6 0.2 0.6 0.6 0 0.3-0.3 0.6-0.6 0.6zm16.5 0h-3.8c-0.4 0-0.7-0.3-0.7-0.6 0-0.4 0.3-0.7 0.7-0.7l3.8 0.1c0.3 0 0.6 0.2 0.6 0.6 0 0.3-0.3 0.6-0.6 0.6z"/>
				<path id="&lt;Path&gt;" class="s26" d="m829.6 3106.1h-83.2c-10.9 0-20-8.1-21.3-18.9l-9.7-80c-1.5-12.8 8.5-24 21.4-24h100c12.6 0 22.5 10.8 21.4 23.3l-7.1 80.1c-1 11-10.3 19.5-21.5 19.5z"/>
				<path id="&lt;Path&gt;" class="s27" d="m819.4 3091.4h-63.3c-8.3 0-15.3-6.2-16.3-14.4l-7.3-60.9c-1.2-9.7 6.4-18.3 16.3-18.3h76c9.7 0 17.2 8.2 16.4 17.8l-5.5 60.9c-0.7 8.4-7.8 14.9-16.3 14.9z"/>
			</g>
			<path id="&lt;Path&gt;" class="s28" d="m2644.3 1660.6l198.1 398.2 254.5-565.7-264.4 292.8z"/>
			<g id="&lt;Group&gt;">
				<g id="&lt;Group&gt;">
					<path id="&lt;Path&gt;" class="s29" d="m1895.8 1789.7c-1.3 4.1 13.6 10.3 22.4-6.4 0.3-8 5.2-42.4 0.4-48.9-25.5-34.8-75-78.4-75-78.4-8.4 8.3-1.5 16.4-1.5 16.4l24 25c-5 9-11.1 16.7-14 27.7-2.2 8.3-0.8 17.1 3.4 24.7 4.2 7.6 9.9 17.5 15.4 25.2 10.2 14.6 24.9 14.7 24.9 14.7z"/>
					<path id="&lt;Path&gt;" class="s30" d="m1876.6 1713.6l21.9 18.5 6.9 18.5-19.5 21.6c0 0-6.6-36.6-11.5-44.5-4.8-8-2.3-11.8 2.2-14.1z"/>
				</g>
				<g id="&lt;Group&gt;">
					<path id="&lt;Path&gt;" class="s31" d="m2325.4 3155c0 0 5.5 31.3 8.2 62.2 1.1 12.1-8.3 22.6-20.4 23.1-41.2 1.7-129.4 5.1-161.1 3.7-4.7-0.2-7.8-5.1-6.1-9.5 1.5-3.7 4.3-6.7 8-8.4l145.7-67z"/>
					<path id="&lt;Path&gt;" class="s32" d="m2329.9 3136.6l-4.4 37.4c0 0-25.6 11.9-43-1.5l10.6-41.7z"/>
					<path id="&lt;Path&gt;" class="s33" d="m2326.6 2433.3c1.9 9.7 10.3 487.5-40.8 701.6-0.8 3.5 0.9 7.1 4.2 8.4 7.9 3.2 23.2 7.9 41.6 8.5 5.7 0.2 10.8-3.5 12.5-9 14.6-49.7 84.5-298.5 93.6-536.3 10.2-265.7 0-9 0-9l-5.9-164.3z"/>
					<path id="&lt;Path&gt;" class="s34" d="m2493 3171.3c0 0 8.7 15.8 17.3 57.7 1.5 7.6-3.8 14.9-11.5 15.6-13.6 1.4-34.6 3.1-51.3 3-7.8-0.1-13.8-6.8-12.9-14.5 1.9-15.3 7.7-40.4 25.6-60z"/>
					<path id="&lt;Path&gt;" class="s35" d="m2500.7 3123.2l-10.4 56.6c0 0-10.2 7.6-30.5 2.1l4.9-60.9z"/>
					<path id="&lt;Path&gt;" class="s36" d="m2528.7 2447.9c41.8 252.1-9.1 623-26.2 695.6-1.1 4.5-4.6 7.9-9.1 8.6-7.7 1.3-20.3 2.3-32.7-1.3-4.3-1.2-7.3-5.1-7.5-9.5-2.3-58.7 1.9-419.1-37.1-561.5-1.9-7.2-6.3-13.5-12.4-17.8l-75.6-53.7-5.8-86.8z"/>
					<g id="&lt;Group&gt;">
						<path id="&lt;Path&gt;" class="s37" d="m2262.6 1970.3c125.1-2.1 263.2 32.9 263.2 32.9 37.3 217.7 6.6 468.8 6.6 468.8-96.9 25.4-206.3-15.6-206.3-15.6-16.1-91-91.2-347-91.2-347-61.2-7.6-111.5-25.3-153-48.6 31.6-36.7 46.5-83.4 53-111 44.3 13.8 89 21.1 127.7 20.5z"/>
						<path id="&lt;Path&gt;" class="s38" d="m1892.8 1785.9c12.3-14.8 27.9-7.8 27.9-7.8 18.4 77.8 115 140.9 214.2 171.7-6.5 27.6-21.4 74.3-53 111-164.7-92.6-189.1-274.9-189.1-274.9z"/>
					</g>
					<path id="&lt;Path&gt;" class="s39" d="m2477.8 2124.4l48-121.2c0 0 116.9 79.4 136.2 180.1-22.1 1.7-62.3 7.4-101.7 27.3-8.6-47.6-82.5-86.2-82.5-86.2z"/>
					<path id="&lt;Path&gt;" class="s40" d="m2389.3 1868.7l39.9 115.2c0.6 1.9-0.2 4-1.9 5-10.9 6-50 23.3-97.1-6.6-4.9-3.1-8.3-8.2-9-13.9l-12.9-99.7z"/>
					<g id="&lt;Group&gt;">
						<path id="&lt;Path&gt;" class="s41" d="m2302.7 1762c0 0-43.8 82.3-38.1 115.6 5.6 33.3 59.8 30.9 107.1 3.9l33.1-88.9z"/>
						<path id="&lt;Path&gt;" class="s42" d="m2369.6 1837.8c-1.9-0.8-2.6-3.2-1.5-5 3.5-5.3 10.1-16.2 12.2-25.8 0 0 7.8-5-20-11.7-27.9-6.7-69.5-17-78.2-40.8-8.5-23.1 13.9-81.3 49.6-34.9 1.3 1.8 4 1.8 5.3 0 5.9-7.6 21.3-23.4 42.7-13.8 19.9 9 22.2 23.6 21.9 31-0.1 2.2 1.9 3.9 4 3.4 10.1-1.9 34.4-3.5 45.7 21.4 9.3 20.4 3.3 32.1-2.2 37.7-1.8 1.9-1 4.9 1.4 5.6 6.6 2.1 15.2 7.7 14.4 23.3-1.2 21.5-25.3 19.6-32.1 18.6-1.2-0.1-2.3 0.2-3 1.1-5.9 6.5-32.4 34.1-61 37.4-2.5 0.3-4.4-2.2-3.6-4.5l12.4-36c0.6-1.7-0.2-3.6-1.9-4.3z"/>
						<path id="&lt;Path&gt;" class="s43" d="m2364.6 1842.9c0 0 31.2-21.3 33.4-3.4 2.3 18-28 26.1-43 19.4z"/>
					</g>
					<path id="&lt;Path&gt;" class="s44" d="m2560.3 2210.6c0 0 40.9 184.3 3.9 288 45.4 21 37 17 37 17 0 0 89.8-262.3 60.8-332.3-57.2-6-85.5 9.3-101.7 27.3z"/>
					<path id="&lt;Path&gt;" class="s45" d="m2564.2 2498.6c0 0-23.4 30.2-21.5 42.3 1.8 12 2.3 16.9 2.3 16.9 0 0 11.7-8 11-18.3-1.6 32.6-12.5 69.7-2.6 67.9 9.9-1.8 61.2-49.1 49.6-99.6-26.3-18.3-33.7-16.3-38.8-9.2z"/>
				</g>
			</g>
		</g>
	</g>
</svg>